STARTFONT 2.3
FONT -FontForge-Fredoka One-Book-R-Normal--24-240-72-72-P-138-ISO10646-1
SIZE 24 72 72  2
FONTBOUNDINGBOX 32 30 -3 -6
COMMENT "Generated by fontforge, http://fontforge.sourceforge.net"
COMMENT "Copyright (c) 2011 Milena B Brandao (milenabbrandao@gmail.com), with Reserved Font Name "Fredoka""
STARTPROPERTIES 40
FOUNDRY "FontForge"
FAMILY_NAME "Fredoka One"
WEIGHT_NAME "Book"
SLANT "R"
SETWIDTH_NAME "Normal"
ADD_STYLE_NAME ""
PIXEL_SIZE 24
POINT_SIZE 240
RESOLUTION_X 72
RESOLUTION_Y 72
SPACING "P"
AVERAGE_WIDTH 138
CHARSET_REGISTRY "ISO10646"
CHARSET_ENCODING "1"
FONTNAME_REGISTRY ""
CHARSET_COLLECTIONS "ISO10646-1"
BITS_PER_PIXEL 2
FONT_NAME "FredokaOne-Regular"
FACE_NAME "Fredoka One"
COPYRIGHT "Copyright (c) 2011 Milena B Brandao (milenabbrandao@gmail.com), with Reserved Font Name "Fredoka""
FONT_VERSION "1.001"
FONT_ASCENT 19
FONT_DESCENT 5
UNDERLINE_POSITION -2
UNDERLINE_THICKNESS 2
X_HEIGHT 12
CAP_HEIGHT 17
RAW_ASCENT 800
RAW_DESCENT 200
NORM_SPACE 6
RELATIVE_WEIGHT 40
RELATIVE_SETWIDTH 50
SUPERSCRIPT_X 0
SUPERSCRIPT_Y 11
SUPERSCRIPT_SIZE 15
SUBSCRIPT_X 0
SUBSCRIPT_Y 3
SUBSCRIPT_SIZE 15
AVG_LOWERCASE_WIDTH 137
AVG_UPPERCASE_WIDTH 163
ENDPROPERTIES
CHARS 235
STARTCHAR space
ENCODING 32
SWIDTH 253 0
DWIDTH 6 0
BBX 1 1 0 0
BITMAP
00
ENDCHAR
STARTCHAR exclam
ENCODING 33
SWIDTH 267 0
DWIDTH 6 0
BBX 5 18 1 0
BITMAP
6900
FF40
FF40
FF40
FF40
FF40
FF40
FF40
FF40
FF40
FF40
6900
0000
1500
BF40
FF40
FF40
7E00
ENDCHAR
STARTCHAR quotedbl
ENCODING 34
SWIDTH 429 0
DWIDTH 10 0
BBX 10 9 0 9
BITMAP
190680
7F4FE0
7F4FE0
7F4FE0
7F4FE0
3F0BD0
3F0BD0
2E07C0
080240
ENDCHAR
STARTCHAR numbersign
ENCODING 35
SWIDTH 749 0
DWIDTH 18 0
BBX 18 18 0 0
BITMAP
0006401900
002F80BE00
003F80FE00
003F40FD00
007F41FD00
1FFFFFFFD0
2FFFFFFFE0
2FFFFFFFD0
00FE03F800
00FD03F400
05FD57F500
7FFFFFFF80
BFFFFFFF80
7FFFFFFF40
03F80FE000
03F40FD000
07F41FD000
02E00B8000
ENDCHAR
STARTCHAR dollar
ENCODING 36
SWIDTH 475 0
DWIDTH 11 0
BBX 11 21 0 -2
BITMAP
002400
00BC00
00BC00
01FD00
0BFFD0
2FFFF0
3FEBE0
3F4140
3F9000
2FFE40
0FFFE0
01BFF4
0007F8
2E02F8
7F97F8
3FFFF4
1FFFD0
01FE00
00BC00
00BC00
007800
ENDCHAR
STARTCHAR percent
ENCODING 37
SWIDTH 838 0
DWIDTH 20 0
BBX 18 20 1 -1
BITMAP
0000002400
069000B800
2FFC00F400
BFFE02E000
FD7F03D000
F82F0B8000
F82F1F4000
BEBE2E0000
7FFD7C0000
1FF8B80000
0141F0BE40
0003E3FFD0
0007CBFFE0
000F4FC2F0
001F0F81F0
003D0FC2F0
007C0BFFF0
00F403FFD0
01E001BF40
0090000000
ENDCHAR
STARTCHAR ampersand
ENCODING 38
SWIDTH 748 0
DWIDTH 18 0
BBX 18 20 0 -1
BITMAP
0005500000
00BFFD0000
02FFFF0000
07FEFF4000
0BF47F8000
0BF4BF8000
07FAFF4000
07FFFE0000
03FFF80000
03FFD00000
0FFF806E00
2FFFE0BF40
3FFFF8FF00
7FCBFFFE00
7FC3FFFD00
7FE6FFFF80
3FFFFFFFD0
1FFFFFFFD0
06FFE46FC0
0004000000
ENDCHAR
STARTCHAR quotesingle
ENCODING 39
SWIDTH 208 0
DWIDTH 5 0
BBX 5 9 0 9
BITMAP
1900
7F40
7F40
7F40
7F40
3F00
3F00
2E00
0800
ENDCHAR
STARTCHAR parenleft
ENCODING 40
SWIDTH 384 0
DWIDTH 9 0
BBX 9 25 0 -6
BITMAP
001640
00BF80
02FF80
07FD40
0BF000
0FD000
1FC000
2F8000
3F8000
3F4000
7F4000
7F4000
7F4000
7F4000
7F4000
3F4000
3F8000
2F8000
1FC000
0FD000
0BF000
03FE40
01FF80
007F80
000500
ENDCHAR
STARTCHAR parenright
ENCODING 41
SWIDTH 384 0
DWIDTH 9 0
BBX 9 25 0 -6
BITMAP
290000
BF8000
BFE000
1BF400
02FC00
01FD00
00FE00
00BF00
007F00
007F40
007F40
003F40
003F40
003F40
007F40
007F40
007F00
00BF00
00FE00
01FD00
02FC00
2FF400
BFE000
BF8000
140000
ENDCHAR
STARTCHAR asterisk
ENCODING 42
SWIDTH 503 0
DWIDTH 12 0
BBX 12 11 0 7
BITMAP
006900
00FF00
14FF14
3FFFFD
BFFFFE
BFFFFE
1BFFE4
0BFFE0
1FFFF4
1FEBF4
07C3D0
ENDCHAR
STARTCHAR plus
ENCODING 43
SWIDTH 527 0
DWIDTH 13 0
BBX 12 12 0 1
BITMAP
001400
007F00
00BF40
00BF40
15BF95
7FFFFF
7FFFFF
7FFFFF
15BF54
00BF40
00BF40
007F00
ENDCHAR
STARTCHAR comma
ENCODING 44
SWIDTH 238 0
DWIDTH 6 0
BBX 5 9 0 -4
BITMAP
1500
7FC0
7FC0
7FC0
2FC0
0F80
1F00
7E00
6400
ENDCHAR
STARTCHAR hyphen
ENCODING 45
SWIDTH 433 0
DWIDTH 10 0
BBX 10 4 0 3
BITMAP
3FFFD0
7FFFE0
7FFFE0
2AAA90
ENDCHAR
STARTCHAR period
ENCODING 46
SWIDTH 237 0
DWIDTH 6 0
BBX 5 5 0 0
BITMAP
1500
7FC0
7FC0
7FC0
2F80
ENDCHAR
STARTCHAR slash
ENCODING 47
SWIDTH 526 0
DWIDTH 13 0
BBX 12 21 0 -2
BITMAP
000028
0000BF
0000FF
0002FE
0003FD
000BF8
000FF4
002FF0
003FD0
00BFC0
00FF40
01FF00
03FD00
07FC00
0FF400
1FF000
3FE000
7FC000
BF8000
7F0000
040000
ENDCHAR
STARTCHAR zero
ENCODING 48
SWIDTH 608 0
DWIDTH 15 0
BBX 14 19 0 -1
BITMAP
006A9000
02FFFD00
0BFFFF40
1FFFFF80
2FF9BFD0
3FE03FD0
3FC02FE0
7FC01FF0
7FC01FF0
7FC01FF0
7FC01FF0
7FC01FE0
3FD02FE0
2FF07FD0
1FFFFFC0
0FFFFF40
07FFFE00
00BFF800
00054000
ENDCHAR
STARTCHAR one
ENCODING 49
SWIDTH 407 0
DWIDTH 10 0
BBX 9 18 0 0
BITMAP
001A00
007F80
01FF80
0BFF80
2FFF80
7FFF80
7FFF80
2FBF80
047F80
007F80
007F80
007F80
007F80
007F80
007F80
007F80
007F80
003F40
ENDCHAR
STARTCHAR two
ENCODING 50
SWIDTH 609 0
DWIDTH 15 0
BBX 15 18 0 0
BITMAP
006A9000
02FFFC00
0FFFFF00
2FFFFF80
3FF5FFC0
7FD03FD0
7FC02FE0
7F803FD0
2A40BFD0
0002FF80
001FFF40
01FFFD00
07FFE000
1FFF9540
3FFFFFF0
7FFFFFF4
7FFFFFF4
2FFFFFE0
ENDCHAR
STARTCHAR three
ENCODING 51
SWIDTH 608 0
DWIDTH 15 0
BBX 14 19 0 -1
BITMAP
006BA000
02FFFD00
0BFFFF40
1FFFFFC0
2FF5BFD0
1FD02FE0
0245BFD0
001FFFC0
002FFF00
002FFF80
000BFFD0
1A002FF0
7F801FF0
7FD02FF0
3FFFFFE0
1FFFFFC0
0BFFFF40
01BFF800
00054000
ENDCHAR
STARTCHAR four
ENCODING 52
SWIDTH 592 0
DWIDTH 14 0
BBX 14 18 0 0
BITMAP
02901A40
07F83FC0
0BF83FD0
0FF43FD0
1FF43FD0
1FF03FD0
2FE03FD0
3FD03FD0
7FD03FD0
7FFFFFD0
BFFFFFD0
BFFFFFD0
6FFFFFD0
00003FD0
00003FD0
00003FD0
00003FD0
00002F80
ENDCHAR
STARTCHAR five
ENCODING 53
SWIDTH 530 0
DWIDTH 13 0
BBX 12 19 0 -1
BITMAP
06AAA8
0FFFFE
1FFFFE
2FFFFE
2FEAA8
2FD000
3FE900
3FFFE0
7FFFF8
7FFFFD
2FEBFE
0641FF
0001FF
2F42FF
7FFFFE
BFFFFD
2FFFF4
07FFD0
005500
ENDCHAR
STARTCHAR six
ENCODING 54
SWIDTH 560 0
DWIDTH 13 0
BBX 13 19 0 -1
BITMAP
00016900
001FFF40
00BFFF40
02FFFF40
0BFFE900
0FFD0000
2FF00000
3FE54000
3FFFF400
7FFFFE00
7FFFFF40
7FE5FF80
7FC07F80
3FC0BF80
2FFAFF80
1FFFFF00
0BFFFD00
01FFE400
00150000
ENDCHAR
STARTCHAR seven
ENCODING 55
SWIDTH 561 0
DWIDTH 13 0
BBX 13 18 0 0
BITMAP
1AAAAA40
BFFFFFC0
BFFFFFC0
BFFFFFC0
2AAAFF80
0001FF40
0003FE00
000BFD00
001FF800
003FF000
00BFD000
00FF8000
01FF4000
02FE0000
03FD0000
03FD0000
03FC0000
02F80000
ENDCHAR
STARTCHAR eight
ENCODING 56
SWIDTH 582 0
DWIDTH 14 0
BBX 14 19 0 -1
BITMAP
006F9000
02FFF800
0FFFFF00
1FFFFF40
2FE5FF80
3FD07F80
2FF5FF80
1FFFFF40
0BFFFE00
1FFFFF40
3FFAFFC0
7FD07FD0
7FC03FD0
7FD07FD0
3FFAFFC0
2FFFFF40
0BFFFE00
01FFF400
00050000
ENDCHAR
STARTCHAR nine
ENCODING 57
SWIDTH 560 0
DWIDTH 13 0
BBX 13 18 0 0
BITMAP
00AE9000
07FFF800
1FFFFD00
3FFFFF00
7FD1FF40
7F80BF80
7FC0BF80
3FFFFF80
1FFFFF80
0BFFFF80
01BEFF40
0001FF40
0007FE00
016FFD00
2FFFF800
3FFFE000
3FFF4000
1FE40000
ENDCHAR
STARTCHAR colon
ENCODING 58
SWIDTH 238 0
DWIDTH 6 0
BBX 5 12 0 0
BITMAP
3F80
7FC0
7FC0
3FC0
0500
0000
0000
1500
7FC0
7FC0
7FC0
2F80
ENDCHAR
STARTCHAR semicolon
ENCODING 59
SWIDTH 237 0
DWIDTH 6 0
BBX 5 16 0 -4
BITMAP
3F80
7FC0
7FC0
3FC0
0500
0000
0000
1500
7FC0
7FC0
7FC0
2FC0
0F80
1F40
7E00
6400
ENDCHAR
STARTCHAR less
ENCODING 60
SWIDTH 627 0
DWIDTH 15 0
BBX 15 17 0 0
BITMAP
00000050
000007F0
00006FF8
0002FFF4
001FFFD0
01BFFE00
0BFFE000
7FFF4000
BFF80000
7FFD0000
2FFF9000
02FFF800
007FFF40
000BFFE0
0000BFF8
00001FF4
000001E0
ENDCHAR
STARTCHAR equal
ENCODING 61
SWIDTH 478 0
DWIDTH 11 0
BBX 11 9 0 1
BITMAP
2AAAA4
7FFFF8
7FFFF8
2FFFF4
000000
1AAAA4
7FFFF8
7FFFF8
2FFFF4
ENDCHAR
STARTCHAR greater
ENCODING 62
SWIDTH 627 0
DWIDTH 15 0
BBX 15 17 0 0
BITMAP
14000000
3F400000
BFE40000
7FFE0000
1FFFD000
02FFF900
002FFF80
0007FFF4
0000BFF8
0001FFF4
001BFFE0
00BFFE00
07FFF400
2FFF8000
BFF80000
7FD00000
2D000000
ENDCHAR
STARTCHAR question
ENCODING 63
SWIDTH 512 0
DWIDTH 12 0
BBX 12 18 0 0
BITMAP
02FE40
0FFFE0
2FFFF8
7FFFFD
BF41FE
2F00FE
0002FE
001BFD
007FF8
00BFD0
00BF00
006900
000000
001500
00FF00
01FF40
00FF40
00BE00
ENDCHAR
STARTCHAR at
ENCODING 64
SWIDTH 908 0
DWIDTH 22 0
BBX 21 19 0 -3
BITMAP
0006FFE40000
007FFFFF8000
01FFFFFFF400
07FE401BFD00
0FE01415FE00
2F81FFBD3F40
3F47FFFC1F80
7F0FFBFC0FC0
7E1F81FC0FC0
7E1F81F80BC0
7E1FD7F80FC0
7E0FFFF40FC0
3F07FFF42F80
2F81A6F4BF40
1FD002FFFE00
0BF901FFF800
03FFF86F9000
00BFFD000000
001BFC000000
ENDCHAR
STARTCHAR A
ENCODING 65
SWIDTH 765 0
DWIDTH 18 0
BBX 18 19 0 -1
BITMAP
0000600000
0002FC0000
0007FE0000
000BFF0000
000FFF4000
002FFFC000
003FFFD000
00BFFFF000
00FF9FF400
02FF0BFC00
03FE5BFD00
0BFFFFFF00
0FFFFFFF40
1FFFFFFFC0
3FE5557FD0
7FD0003FE0
BF80001FF0
2F40000FD0
0000000100
ENDCHAR
STARTCHAR B
ENCODING 66
SWIDTH 646 0
DWIDTH 16 0
BBX 14 18 1 0
BITMAP
6AAA9000
FFFFFD00
FFFFFF40
FFFFFFC0
FFAABFD0
FF403FD0
FF403FD0
FF47FFC0
FF4FFF80
FF4FFFC0
FF45BFE0
FF401FE0
FF401FF0
FF557FE0
FFFFFFD0
FFFFFFC0
FFFFFF40
BFFFF800
ENDCHAR
STARTCHAR C
ENCODING 67
SWIDTH 679 0
DWIDTH 16 0
BBX 16 19 0 -1
BITMAP
0001AA40
002FFFF4
01FFFFFD
07FFFFFE
0FFFABFD
2FF80064
3FE00000
7FD00000
7FC00000
7FC00000
7FC00000
3FD00000
2FF40010
1FFE41F8
0BFFFFFD
02FFFFFE
00BFFFF8
000BFF90
00001400
ENDCHAR
STARTCHAR D
ENCODING 68
SWIDTH 704 0
DWIDTH 17 0
BBX 16 18 1 0
BITMAP
6AAA4000
FFFFF800
FFFFFF40
FFFFFFD0
FFAAFFF0
FF402FF8
FF400BFC
FF4007FC
FF4003FD
FF4003FD
FF4003FC
FF400BFC
FF401FF8
FF55BFF0
FFFFFFD0
FFFFFF80
FFFFFD00
BFFF9000
ENDCHAR
STARTCHAR E
ENCODING 69
SWIDTH 638 0
DWIDTH 15 0
BBX 14 18 1 0
BITMAP
6AAAAA40
FFFFFFE0
FFFFFFE0
FFFFFFE0
FFAAAA80
FF400000
FF400000
FFFFF800
FFFFFC00
FFFFFC00
FFFFF800
FF555000
FF400000
FF555500
FFFFFFD0
FFFFFFE0
FFFFFFE0
BFFFFFD0
ENDCHAR
STARTCHAR F
ENCODING 70
SWIDTH 637 0
DWIDTH 15 0
BBX 14 18 1 0
BITMAP
6AAAAA40
FFFFFFE0
FFFFFFE0
FFFFFFE0
FFAAAA80
FF400000
FF400000
FFFFF400
FFFFFC00
FFFFFC00
FFFFF800
FF555000
FF400000
FF400000
FF400000
FF400000
FF400000
BE000000
ENDCHAR
STARTCHAR G
ENCODING 71
SWIDTH 714 0
DWIDTH 17 0
BBX 17 19 0 -1
BITMAP
0006BA4000
007FFFF400
02FFFFFD00
07FFFFFE00
1FFE56FC00
2FF4006000
3FE0000000
7FC02AA900
7FC07FFF00
7FC0BFFF00
7FC07FFF40
3FE000FF40
2FF400FF40
1FFE41FF40
0BFFFFFF00
02FFFFFF00
00BFFFFD00
001BFF9000
0000100000
ENDCHAR
STARTCHAR H
ENCODING 72
SWIDTH 699 0
DWIDTH 17 0
BBX 15 18 1 0
BITMAP
690001A0
FF0007F8
FF4007F8
FF4007F8
FF4007F8
FF4007F8
FF4007F8
FFAAABF8
FFFFFFF8
FFFFFFF8
FFFFFFF8
FF4007F8
FF4007F8
FF4007F8
FF4007F8
FF4007F8
FF4007F8
BE0002F4
ENDCHAR
STARTCHAR I
ENCODING 73
SWIDTH 257 0
DWIDTH 6 0
BBX 5 18 1 0
BITMAP
6900
FF00
FF40
FF40
FF40
FF40
FF40
FF40
FF40
FF40
FF40
FF40
FF40
FF40
FF40
FF40
FF40
BE00
ENDCHAR
STARTCHAR J
ENCODING 74
SWIDTH 549 0
DWIDTH 13 0
BBX 13 19 0 -1
BITMAP
00002900
0000FF00
0000FF40
0000FF40
0000FF40
0000FF40
0000FF40
0000FF40
0000FF40
0000FF40
0000FF40
0000FF40
0901FF00
3F86FF00
BFFFFE00
7FFFFC00
2FFFF400
06FF8000
00140000
ENDCHAR
STARTCHAR K
ENCODING 75
SWIDTH 639 0
DWIDTH 15 0
BBX 14 18 1 0
BITMAP
69000A00
FF002FC0
FF40BFD0
FF42FFC0
FF47FF40
FF5FFD00
FF7FF400
FFFFD000
FFFF4000
FFFE0000
FFFF8000
FFBFE000
FF6FF800
FF4BFE00
FF43FF80
FF40FFD0
FF407FD0
BE001F40
ENDCHAR
STARTCHAR L
ENCODING 76
SWIDTH 587 0
DWIDTH 14 0
BBX 13 18 1 0
BITMAP
69000000
FF000000
FF400000
FF400000
FF400000
FF400000
FF400000
FF400000
FF400000
FF400000
FF400000
FF400000
FF400000
FF400000
FFAAA900
FFFFFF40
FFFFFF40
BFFFFF40
ENDCHAR
STARTCHAR M
ENCODING 77
SWIDTH 870 0
DWIDTH 21 0
BBX 19 18 1 0
BITMAP
6900000190
FF400007F8
FFC0001FFC
FFE0003FFC
FFF800BFFC
FFFD02FFFC
FFFF07FFFC
FFFFCFFFFC
FF7FFFFBFC
FF6FFFD7FC
FF4BFF87FC
FF43FF07FC
FF41FD07FC
FF405007FC
FF400007FC
FF400007FC
FF000007FC
BE000002F4
ENDCHAR
STARTCHAR N
ENCODING 78
SWIDTH 720 0
DWIDTH 17 0
BBX 16 18 1 0
BITMAP
69000064
FF4002FD
FFC003FD
FFE003FD
FFF803FD
FFFD03FD
FFFF03FD
FFFF83FD
FFBFE3FD
FF6FF7FD
FF4FFFFD
FF47FFFD
FF41FFFD
FF40BFFD
FF403FFD
FF401FFD
FF0007FD
BE0002F8
ENDCHAR
STARTCHAR O
ENCODING 79
SWIDTH 775 0
DWIDTH 19 0
BBX 18 19 0 -1
BITMAP
0006A90000
007FFFE000
01FFFFFD00
07FFFFFF00
0FFF9BFF80
2FF800FFD0
3FE0003FE0
7FC0002FF0
7FC0001FF0
7FC0001FF0
7FC0001FF0
3FD0002FE0
3FF0007FD0
1FFD02FFC0
0BFFFFFF40
03FFFFFE00
00BFFFF400
001BFF9000
0000540000
ENDCHAR
STARTCHAR P
ENCODING 80
SWIDTH 632 0
DWIDTH 15 0
BBX 14 18 1 0
BITMAP
6AAA4000
FFFFF800
FFFFFE00
FFFFFF80
FFAAFFC0
FF407FD0
FF402FE0
FF402FD0
FF40BFD0
FFFFFFC0
FFFFFF40
FFFFFD00
FFFFE400
FF400000
FF400000
FF400000
FF400000
BE000000
ENDCHAR
STARTCHAR Q
ENCODING 81
SWIDTH 830 0
DWIDTH 20 0
BBX 20 19 0 -1
BITMAP
0006A90000
007FFFE000
01FFFFFD00
07FFFFFF00
0FFF9BFF80
2FF800FFD0
3FE0003FE0
7FC0002FE0
7FC0001FF0
7FC0001FF0
7FC0001FF0
3FD0002FE0
3FF0007FD0
1FFD02FFE0
0BFFFFFFF8
03FFFFFFFD
00BFFFFBFD
001BFF91F8
0000540010
ENDCHAR
STARTCHAR R
ENCODING 82
SWIDTH 631 0
DWIDTH 15 0
BBX 14 18 1 0
BITMAP
6AAA4000
FFFFF800
FFFFFF00
FFFFFF80
FFAAFFC0
FF407FD0
FF402FE0
FF402FE0
FF40BFD0
FFFFFFC0
FFFFFF40
FFFFFF00
FFFFFF40
FF40FF80
FF407FD0
FF403FE0
FF402FE0
BE000F80
ENDCHAR
STARTCHAR S
ENCODING 83
SWIDTH 583 0
DWIDTH 14 0
BBX 14 19 0 -1
BITMAP
00AE9000
07FFFD00
1FFFFF40
2FFFFF40
3FE0BE00
3FD01400
3FE00000
2FFF9000
0FFFFE00
06FFFF80
006FFFC0
0000BFD0
1E003FD0
7FD07FD0
7FFAFFC0
2FFFFF80
0BFFFE00
01FFE400
00050000
ENDCHAR
STARTCHAR T
ENCODING 84
SWIDTH 731 0
DWIDTH 18 0
BBX 17 18 0 0
BITMAP
2AAAAAAA40
BFFFFFFFC0
BFFFFFFFC0
6FFFFFFF80
0007FC0000
0007FC0000
0007FC0000
0007FC0000
0007FC0000
0007FC0000
0007FC0000
0007FC0000
0007FC0000
0007FC0000
0007FC0000
0007FC0000
0007F80000
0002F40000
ENDCHAR
STARTCHAR U
ENCODING 85
SWIDTH 726 0
DWIDTH 17 0
BBX 16 19 1 -1
BITMAP
690000A4
FF0002FD
FF4002FD
FF4002FD
FF4002FD
FF4002FD
FF4002FD
FF4002FD
FF4002FD
FF4002FD
FF4003FD
FF8003FD
BFC00BFC
7FE41FF8
2FFFFFF4
0FFFFFD0
07FFFF80
00BFF900
00014000
ENDCHAR
STARTCHAR V
ENCODING 86
SWIDTH 783 0
DWIDTH 19 0
BBX 19 18 0 0
BITMAP
1A00000280
7F40000BF0
BFC0001FF4
7FD0002FF0
2FF0003FE0
1FF400BFC0
0BF800FF80
07FD01FF00
02FE03FE00
01FF47FC00
00BF8FF800
007FDFF000
002FFFE000
001FFFC000
000BFF8000
0007FF0000
0002FE0000
0000B80000
ENDCHAR
STARTCHAR W
ENCODING 87
SWIDTH 999 0
DWIDTH 24 0
BBX 24 18 0 0
BITMAP
1A00018000A4
7F400FE002FD
BFC01FF403FE
7FD02FF807FD
3FD03FFC0BFC
2FE07FFD0FF8
1FF0BFFE1FF4
0FF4FFFF2FF0
0BF9FFFF7FD0
07FEFEBFBFC0
03FFFD7FFF80
02FFFC3FFF40
00FFF82FFF00
00BFF41FFE00
007FF00FFD00
003FE00BFC00
002FD007F800
000B4002E000
ENDCHAR
STARTCHAR X
ENCODING 88
SWIDTH 741 0
DWIDTH 18 0
BBX 18 18 0 0
BITMAP
1E00001F40
7F80003FC0
BFE000FFD0
3FF802FF80
1FFD0BFF00
07FF6FFC00
01FFFFF400
007FFFD000
002FFF4000
001FFF4000
007FFFC000
01FFFFF000
03FFAFF800
0FFE0BFE00
2FF803FF80
7FF000FFD0
7FC0007FD0
2F40001F40
ENDCHAR
STARTCHAR Y
ENCODING 89
SWIDTH 686 0
DWIDTH 16 0
BBX 16 18 0 0
BITMAP
1A000064
7F8001FE
BFD002FF
3FF007FE
1FF80FFC
0BFC2FF4
07FE7FE0
01FFFFC0
00BFFF40
007FFE00
001FFC00
000FF400
000FF400
000FF400
000FF400
000FF400
000FF400
0007F000
ENDCHAR
STARTCHAR Z
ENCODING 90
SWIDTH 643 0
DWIDTH 15 0
BBX 15 18 0 0
BITMAP
1AAAAA90
7FFFFFF4
7FFFFFF4
7FFFFFF4
1AAAFFE0
0001FF80
0003FF00
000BFD00
002FF800
007FF000
00FFD000
02FF4000
07FE0000
0FFD0000
2FFFFFF4
7FFFFFF8
7FFFFFF8
2FFFFFF4
ENDCHAR
STARTCHAR bracketleft
ENCODING 91
SWIDTH 348 0
DWIDTH 8 0
BBX 7 25 1 -6
BITMAP
5AA4
FFFC
FFFC
FFF8
FF00
FF00
FF00
FF00
FF00
FF00
FF00
FF00
FF00
FF00
FF00
FF00
FF00
FF00
FF00
FF00
FF00
FFF8
FFFC
FFFC
1550
ENDCHAR
STARTCHAR backslash
ENCODING 92
SWIDTH 528 0
DWIDTH 13 0
BBX 13 21 0 -2
BITMAP
1A000000
7F400000
BF800000
3FD00000
2FE00000
0FF40000
0BF80000
07FD0000
02FE0000
01FF4000
00BF8000
007FC000
002FE000
001FF000
000BF800
0007FC00
0003FE00
0001FF00
0000FF40
00007E00
00001000
ENDCHAR
STARTCHAR bracketright
ENCODING 93
SWIDTH 348 0
DWIDTH 8 0
BBX 8 25 0 -6
BITMAP
1AA4
BFFD
BFFD
7FFD
02FD
02FD
02FD
02FD
02FD
02FD
02FD
02FD
02FD
02FD
02FD
02FD
02FD
02FD
02FD
02FD
02FD
7FFD
BFFD
BFFD
1554
ENDCHAR
STARTCHAR asciicircum
ENCODING 94
SWIDTH 526 0
DWIDTH 13 0
BBX 11 7 1 6
BITMAP
00B400
02FD00
0BFF40
2FFFD0
BF9FF4
FE07F8
7801E0
ENDCHAR
STARTCHAR underscore
ENCODING 95
SWIDTH 826 0
DWIDTH 20 0
BBX 20 4 0 -6
BITMAP
6FFFFFFFF8
BFFFFFFFFD
BFFFFFFFFD
1555555554
ENDCHAR
STARTCHAR grave
ENCODING 96
SWIDTH 482 0
DWIDTH 12 0
BBX 8 6 2 13
BITMAP
1400
7F90
BFFD
7FFD
06FC
0010
ENDCHAR
STARTCHAR a
ENCODING 97
SWIDTH 596 0
DWIDTH 14 0
BBX 14 13 0 0
BITMAP
00690A40
02FFEFD0
0BFFFFD0
2FFFFFD0
3FFAFFD0
7FD07FD0
7FC03FD0
7FC07FD0
3FE5FFD0
2FFFFFD0
0FFFFFD0
07FFFFD0
00BE5F80
ENDCHAR
STARTCHAR b
ENCODING 98
SWIDTH 592 0
DWIDTH 14 0
BBX 13 19 1 0
BITMAP
59000000
FF000000
FF000000
FF000000
FF000000
FF000000
FF5A4000
FFFFE000
FFFFFC00
FFFFFE00
FFEBFF40
FF80FF40
FF40BF80
FF40BF80
FFD6FF40
FFFFFF00
FFFFFD00
FFFFF400
BE6F9000
ENDCHAR
STARTCHAR c
ENCODING 99
SWIDTH 517 0
DWIDTH 12 0
BBX 12 13 0 0
BITMAP
006A90
02FFF8
0BFFFE
2FFFFE
3FFAFC
7FD010
7FC000
7FC000
3FE5B8
2FFFFD
0FFFFE
07FFFD
00BFE0
ENDCHAR
STARTCHAR d
ENCODING 100
SWIDTH 598 0
DWIDTH 14 0
BBX 14 19 0 0
BITMAP
00000640
00002FD0
00002FD0
00002FD0
00002FD0
00002FD0
00592FD0
02FFFFD0
0BFFFFD0
1FFFFFD0
3FFAFFD0
3FD07FD0
7FC03FD0
7FC03FD0
3FF5BFD0
2FFFFFD0
0FFFFFD0
03FFFFD0
00BE5F80
ENDCHAR
STARTCHAR e
ENCODING 101
SWIDTH 573 0
DWIDTH 14 0
BBX 13 14 0 -1
BITMAP
006BA400
02FFFD00
0FFFFF40
2FFFFF80
3FE07FC0
7FD07FC0
7FFFFFC0
7FFFFF40
3FD00000
2FF96E00
1FFFFF40
07FFFF40
01BFFE00
00055000
ENDCHAR
STARTCHAR f
ENCODING 102
SWIDTH 450 0
DWIDTH 11 0
BBX 11 19 0 0
BITMAP
001680
00BFE0
02FFE0
03FFE0
07FE80
07F800
1BFE90
7FFFF4
BFFFF4
7FFFF4
1BFE90
07F800
07F800
07F800
07F800
07F800
07F800
07F800
02F400
ENDCHAR
STARTCHAR g
ENCODING 103
SWIDTH 585 0
DWIDTH 14 0
BBX 13 19 0 -6
BITMAP
00691A40
02FFBFC0
0FFFFFC0
2FFFFFC0
3FFAFFC0
7FC07FC0
7F807FC0
7FC0BFC0
3FFAFFC0
2FFFFFC0
0FFFFFC0
02FFBFC0
00693FC0
01407FC0
0BE6FF80
1FFFFF40
0FFFFD00
02FFE400
00154000
ENDCHAR
STARTCHAR h
ENCODING 104
SWIDTH 605 0
DWIDTH 15 0
BBX 13 19 1 0
BITMAP
59000000
FF000000
FF000000
FF000000
FF000000
FF000000
FF1A4000
FFBFF400
FFFFFD00
FFFFFE00
FFEBFF40
FF80FF40
FF40BF80
FF00BF80
FF00BF80
FF00BF80
FF00BF80
FF00BF80
BE007F40
ENDCHAR
STARTCHAR i
ENCODING 105
SWIDTH 255 0
DWIDTH 6 0
BBX 4 19 1 0
BITMAP
59
FF
FF
FF
69
00
69
FF
FF
FF
FF
FF
FF
FF
FF
FF
FF
FF
BE
ENDCHAR
STARTCHAR j
ENCODING 106
SWIDTH 252 0
DWIDTH 6 0
BBX 8 25 -3 -6
BITMAP
0055
00FF
00FF
00FF
0069
0000
0069
00FF
00FF
00FF
00FF
00FF
00FF
00FF
00FF
00FF
00FF
00FF
00FF
01FF
6FFE
FFFD
FFF4
FF90
5500
ENDCHAR
STARTCHAR k
ENCODING 107
SWIDTH 536 0
DWIDTH 13 0
BBX 12 19 1 0
BITMAP
690000
FF0000
FF0000
FF0000
FF0000
FF0000
FF0000
FF02E0
FF1FF4
FF7FF8
FFFFE0
FFFF80
FFFE00
FFFF40
FFFFE0
FFBFF8
FF1FFD
FF07FD
BE01B4
ENDCHAR
STARTCHAR l
ENCODING 108
SWIDTH 327 0
DWIDTH 8 0
BBX 7 19 1 0
BITMAP
6900
FF00
FF00
FF00
FF00
FF00
FF00
FF00
FF00
FF00
FF00
FF00
FF00
FF00
FF40
FFF4
BFF4
7FF4
1BF4
ENDCHAR
STARTCHAR m
ENCODING 109
SWIDTH 851 0
DWIDTH 20 0
BBX 19 13 1 0
BITMAP
691A406900
FF7FE2FF80
FFFFFFFFE0
FFFFFFFFF0
FFEFFFAFF4
FF43FE0FF4
FF43FD0BF4
FF43FD0BF4
FF43FD0BF4
FF43FD0BF4
FF43FD0BF4
FF03FD0BF4
BE01F807F0
ENDCHAR
STARTCHAR n
ENCODING 110
SWIDTH 606 0
DWIDTH 15 0
BBX 13 13 1 0
BITMAP
691A4000
FFBFF400
FFFFFD00
FFFFFE00
FFEBFF40
FF80FF40
FF40BF80
FF00BF80
FF00BF80
FF00BF80
FF00BF80
FF00BF80
BE007F40
ENDCHAR
STARTCHAR o
ENCODING 111
SWIDTH 600 0
DWIDTH 14 0
BBX 14 14 0 -1
BITMAP
006FA000
02FFFD00
0BFFFF40
2FFFFFC0
3FF5BFD0
7FD02FE0
7FC02FE0
7FC02FE0
3FE07FE0
2FFFFFC0
0FFFFF80
07FFFE00
00BFE400
00010000
ENDCHAR
STARTCHAR p
ENCODING 112
SWIDTH 582 0
DWIDTH 14 0
BBX 13 19 1 -6
BITMAP
691A4000
FFBFE000
FFFFF800
FFFFFE00
FFEBFF00
FF40FF40
FF40BF40
FF40FF40
FFE7FF00
FFFFFE00
FFFFF800
FFFFE000
FF1A4000
FF000000
FF000000
FF000000
FF000000
FF000000
14000000
ENDCHAR
STARTCHAR q
ENCODING 113
SWIDTH 582 0
DWIDTH 14 0
BBX 13 19 0 -6
BITMAP
00691A40
02FFBFC0
0BFFFFC0
2FFFFFC0
3FFAFFC0
7FC0BFC0
7F807FC0
7FC07FC0
3FF6FFC0
2FFFFFC0
0FFFFFC0
02FFFFC0
00693FC0
00003FC0
00003FC0
00003FC0
00003FC0
00003FC0
00000500
ENDCHAR
STARTCHAR r
ENCODING 114
SWIDTH 457 0
DWIDTH 11 0
BBX 10 13 1 0
BITMAP
691A40
FFBFE0
FFFFE0
FFFFD0
FFD640
FF4000
FF4000
FF4000
FF4000
FF4000
FF4000
FF0000
BE0000
ENDCHAR
STARTCHAR s
ENCODING 115
SWIDTH 489 0
DWIDTH 12 0
BBX 11 14 0 -1
BITMAP
01BE80
1FFFF4
2FFFF4
3FD6E0
3FD000
2FFF90
1FFFF4
07FFFC
046BFC
2F97FC
7FFFFC
7FFFF4
0BFF90
001000
ENDCHAR
STARTCHAR t
ENCODING 116
SWIDTH 449 0
DWIDTH 11 0
BBX 11 17 0 0
BITMAP
02F400
07F800
07F800
07F800
2BFE90
BFFFF4
BFFFF4
BFFFF4
2BFE90
07F800
07F800
07F800
07FC00
07FFD0
03FFE0
01FFE0
006FD0
ENDCHAR
STARTCHAR u
ENCODING 117
SWIDTH 606 0
DWIDTH 15 0
BBX 13 13 1 0
BITMAP
69002A00
FF00BF40
FF40BF80
FF40BF80
FF40BF80
FF40BF80
FF40BF80
FF40BF80
BFD6FF80
7FFFFF80
3FFFFF80
0FFFBF80
02B97F40
ENDCHAR
STARTCHAR v
ENCODING 118
SWIDTH 638 0
DWIDTH 15 0
BBX 15 13 0 0
BITMAP
1A000190
7F8007F8
BFC00BFC
7FE01FF4
2FF02FF0
0FF87FD0
07FDFF80
03FFFF40
01FFFE00
00BFFC00
003FF400
002FE000
000BD000
ENDCHAR
STARTCHAR w
ENCODING 119
SWIDTH 793 0
DWIDTH 19 0
BBX 19 13 0 0
BITMAP
1A00640290
7F41FD07F4
BFC2FE0BF8
7FD3FF1FF4
2FE7FFAFF0
1FFFFFFFD0
0FFFFFFFC0
0BFFFFFF80
03FFDFFF40
02FF8BFE00
01FF47FD00
00FF03FC00
007D01F400
ENDCHAR
STARTCHAR x
ENCODING 120
SWIDTH 567 0
DWIDTH 14 0
BBX 14 13 0 0
BITMAP
19000A00
7F803F80
BFE0FFD0
7FFBFF80
1FFFFE00
07FFF800
01FFF000
03FFF800
0FFFFE00
2FFFFF40
BFF1FFC0
7FC07FC0
1E001F40
ENDCHAR
STARTCHAR y
ENCODING 121
SWIDTH 604 0
DWIDTH 15 0
BBX 14 19 0 -6
BITMAP
1A000680
7F800FF0
BFD01FF0
3FE03FE0
1FF47FD0
0BFCBF80
07FEFF40
02FFFF00
00FFFD00
007FFC00
003FF800
002FF000
003FE000
007FC000
00FF8000
01FF4000
02FE0000
01FD0000
00640000
ENDCHAR
STARTCHAR z
ENCODING 122
SWIDTH 586 0
DWIDTH 14 0
BBX 14 13 0 0
BITMAP
1AAAAA00
2FFFFFC0
3FFFFFC0
2FFFFF80
06ABFF00
001FF800
00BFE000
02FF8000
0BFE5500
2FFFFFD0
7FFFFFD0
7FFFFFD0
2FFFFFC0
ENDCHAR
STARTCHAR braceleft
ENCODING 123
SWIDTH 381 0
DWIDTH 9 0
BBX 9 25 0 -6
BITMAP
001600
00BF80
01FF80
02FF40
03F800
03F800
03F800
03F800
03F800
03F800
1BF400
7FF000
BFD000
7FF000
07F400
03F400
03F800
03F800
03F800
03F800
03F800
02FF40
01FF80
007F80
000500
ENDCHAR
STARTCHAR bar
ENCODING 124
SWIDTH 217 0
DWIDTH 5 0
BBX 4 25 1 -6
BITMAP
64
FC
FD
FD
FD
FD
FD
FD
FD
FD
FD
FD
FD
FD
FD
FD
FD
FD
FD
FD
FD
FD
FD
FC
64
ENDCHAR
STARTCHAR braceright
ENCODING 125
SWIDTH 381 0
DWIDTH 9 0
BBX 9 25 0 -6
BITMAP
190000
BF8000
BFD000
7FF000
07F000
07F000
07F000
07F000
07F000
07F000
07F900
02FF80
01FF80
03FF80
07F500
07F000
07F000
07F000
07F000
07F000
0BF000
7FE000
BFD000
BF8000
140000
ENDCHAR
STARTCHAR asciitilde
ENCODING 126
SWIDTH 651 0
DWIDTH 16 0
BBX 13 5 1 4
BITMAP
07F82E00
2FFFBF80
BFFFFF40
BFBFFE00
2E0BF800
ENDCHAR
STARTCHAR exclamdown
ENCODING 161
SWIDTH 268 0
DWIDTH 6 0
BBX 5 19 1 -6
BITMAP
0400
BF00
FF40
FF40
BF40
1400
0000
6E00
FF40
FF40
FF40
FF40
FF40
FF40
FF40
FF40
FF40
BF40
1500
ENDCHAR
STARTCHAR cent
ENCODING 162
SWIDTH 434 0
DWIDTH 10 0
BBX 10 18 0 -2
BITMAP
007C00
00BD00
00BD00
00BD00
02FF40
0BFFE0
2FFFE0
3FD7C0
7F4000
7F4000
7F9680
3FFFE0
1FFFE0
06FF80
00BD00
00BD00
00BD00
007800
ENDCHAR
STARTCHAR sterling
ENCODING 163
SWIDTH 675 0
DWIDTH 16 0
BBX 16 18 0 0
BITMAP
0001A900
002FFFE0
00BFFFF8
02FFFFFD
03FE56FC
07FC00A4
07F40000
0BF94000
7FFFF400
BFFFF400
7FFFF000
02FD0000
02FD0000
02FD0000
07FFFFFD
0FFFFFFE
0FFFFFFE
07FFFFFD
ENDCHAR
STARTCHAR currency
ENCODING 164
SWIDTH 677 0
DWIDTH 16 0
BBX 16 19 0 0
BITMAP
04000014
3E0000BD
7F9556FE
2FFFFFFC
0FFFFFF4
0BFFFFF0
1FF95FF8
2FD003FC
2FC002FC
3F8001FC
3F8001FC
2FC002FC
1FE00BF8
0FFFFFF4
0BFFFFF0
1FFFFFF8
3FEAABFD
7F0000BE
19000028
ENDCHAR
STARTCHAR yen
ENCODING 165
SWIDTH 677 0
DWIDTH 16 0
BBX 16 18 0 0
BITMAP
09000064
7F4001FD
BFC002FE
7FE007FD
2FF40FF8
0FFC2FF4
07FE7FD0
02FFFF80
00FFFF40
02BFFF90
07FFFFE0
03FFFFD0
000FF400
015FF940
07FFFFE0
07FFFFE0
000FF400
0007E000
ENDCHAR
STARTCHAR brokenbar
ENCODING 166
SWIDTH 215 0
DWIDTH 5 0
BBX 4 25 1 -6
BITMAP
64
FC
FD
FD
FD
FD
FD
FD
FD
FD
FC
10
00
64
FC
FD
FD
FD
FD
FD
FD
FD
FD
FC
10
ENDCHAR
STARTCHAR section
ENCODING 167
SWIDTH 560 0
DWIDTH 13 0
BBX 13 25 0 -6
BITMAP
00154000
02FFF400
0FFFFD00
2FFFFE00
3FE6FD00
3FC02400
3FD00000
2FFE4000
1FFFF800
1FFFFF00
2FFFFF80
3FD1BF80
3FC07F80
3FE4BF80
2FFFFF40
0BFFFF00
01FFFF40
0016FF80
09007F80
2F807F80
7FE5FF80
3FFFFF40
1FFFFD00
02FFE400
00150000
ENDCHAR
STARTCHAR dieresis
ENCODING 168
SWIDTH 489 0
DWIDTH 12 0
BBX 11 5 1 14
BITMAP
690190
FF07F8
FF4BF8
FF07F8
6902A0
ENDCHAR
STARTCHAR copyright
ENCODING 169
SWIDTH 711 0
DWIDTH 17 0
BBX 17 16 0 2
BITMAP
006BFA4000
02FFFFE000
0BE506F800
2F06A43E00
3D2FFE1F00
7C7FBE0F40
78BC040B40
78F8000B40
78F8000B40
78BD080B40
3C7FFE0F00
2D1FFE1F00
1F41947D00
0BE95AF800
02FFFFE000
001AA90000
ENDCHAR
STARTCHAR ordfeminine
ENCODING 170
SWIDTH 445 0
DWIDTH 11 0
BBX 10 9 0 8
BITMAP
07FBE0
1FFFE0
3FFFE0
7F0BE0
7E07E0
7F5FE0
3FFFE0
1FFFE0
02E6D0
ENDCHAR
STARTCHAR guillemotleft
ENCODING 171
SWIDTH 668 0
DWIDTH 16 0
BBX 16 13 0 0
BITMAP
00040010
007F00BD
01FF43FE
07FE0FFD
1FF83FF4
3FE0FFD0
BFC1FF40
7FD1FF80
2FF47FE0
0BFD1FF8
02FF47FD
00BF41FD
001D0078
ENDCHAR
STARTCHAR logicalnot
ENCODING 172
SWIDTH 526 0
DWIDTH 13 0
BBX 13 8 0 3
BITMAP
1AAAA900
BFFFFF40
BFFFFF40
BFFFFF40
1AAABF40
00003F40
00003F40
00002E00
ENDCHAR
STARTCHAR registered
ENCODING 174
SWIDTH 711 0
DWIDTH 17 0
BBX 17 16 0 2
BITMAP
006BFA4000
02FFFFE000
0BE506F800
2F1AA43E00
3D2FFE1F00
7C2FBF4F40
782E1F4B40
782FAF0B40
782FFE0B40
782FFE0B40
3C2E1F4F00
2D2E0F5F00
1F44057D00
0BE95AF800
02FFFFE000
001AA90000
ENDCHAR
STARTCHAR degree
ENCODING 176
SWIDTH 407 0
DWIDTH 10 0
BBX 9 10 0 9
BITMAP
015000
0BFD00
2FFF40
3F6FC0
7D0BC0
7E0BC0
3FAFC0
2FFF40
07FD00
004000
ENDCHAR
STARTCHAR plusminus
ENCODING 177
SWIDTH 505 0
DWIDTH 12 0
BBX 12 13 0 0
BITMAP
007D00
00BF00
15FF54
7FFFFD
7FFFFD
7FFFFD
05BF50
00BE00
006900
055550
3FFFFC
3FFFFC
2FFFF8
ENDCHAR
STARTCHAR twosuperior
ENCODING 178
SWIDTH 455 0
DWIDTH 11 0
BBX 11 13 0 5
BITMAP
02FE00
1FFF80
2FFFE0
7FAFF0
7F47F0
7F0BF0
152FE0
01FFC0
0BFF40
3FFEA0
7FFFF8
7FFFF8
1AAAA4
ENDCHAR
STARTCHAR threesuperior
ENCODING 179
SWIDTH 457 0
DWIDTH 11 0
BBX 11 13 0 5
BITMAP
02FE00
0FFFD0
2FFFE0
2F9BF0
1B07F0
006FE0
00FFD0
146FF0
7F07F4
7F9BF4
3FFFF0
1FFFD0
06FE40
ENDCHAR
STARTCHAR acute
ENCODING 180
SWIDTH 605 0
DWIDTH 15 0
BBX 8 6 3 13
BITMAP
0014
06FD
7FFE
7FFD
3F90
0400
ENDCHAR
STARTCHAR mu
ENCODING 181
SWIDTH 601 0
DWIDTH 14 0
BBX 13 19 1 -6
BITMAP
69002A00
FF00BF40
FF00BF40
FF00BF40
FF00BF40
FF00BF40
FF00BF40
FF40FF40
FFD6FF40
FFFFFF40
FFFFFF40
FFFFBF40
FFA96A00
FF000000
FF000000
FF000000
FF000000
BF000000
14000000
ENDCHAR
STARTCHAR paragraph
ENCODING 182
SWIDTH 614 0
DWIDTH 15 0
BBX 14 21 0 -6
BITMAP
06AAAA80
2FFFFFD0
3FFFAFD0
7FFF4FD0
7FFF4FD0
7FFF4FD0
3FFF4FD0
1FFF4FD0
06BF4FD0
003F4FD0
003F4FD0
003F4FD0
003F4FD0
003F4FD0
003F4FD0
003F4FD0
003F4FD0
003F4FD0
003F4FD0
003F0FD0
00190640
ENDCHAR
STARTCHAR periodcentered
ENCODING 183
SWIDTH 237 0
DWIDTH 6 0
BBX 5 5 0 5
BITMAP
1A40
7FC0
7FC0
7FC0
2A40
ENDCHAR
STARTCHAR cedilla
ENCODING 184
SWIDTH 559 0
DWIDTH 13 0
BBX 5 6 4 -5
BITMAP
2900
BF40
6B80
6B80
BF40
1900
ENDCHAR
STARTCHAR onesuperior
ENCODING 185
SWIDTH 321 0
DWIDTH 8 0
BBX 7 13 0 5
BITMAP
00A4
07F8
1FF8
7FF8
BFF8
3FF8
02F8
02F8
02F8
02F8
02F8
02F8
01A4
ENDCHAR
STARTCHAR ordmasculine
ENCODING 186
SWIDTH 439 0
DWIDTH 11 0
BBX 10 10 0 7
BITMAP
02F900
1FFF80
3FFFD0
7F4BE0
7E03F0
7F07F0
3FEFE0
1FFFC0
07FE00
005000
ENDCHAR
STARTCHAR guillemotright
ENCODING 187
SWIDTH 669 0
DWIDTH 16 0
BBX 16 13 0 0
BITMAP
04001000
3F00FD00
BFC1FF40
7FF0BFD0
0FFC2FF4
03FF0BFC
00FF43FE
02FF47FD
0BFD1FF8
2FF47FE0
7FD1FF80
7F41FE00
1D007400
ENDCHAR
STARTCHAR onequarter
ENCODING 188
SWIDTH 786 0
DWIDTH 19 0
BBX 17 20 1 -1
BITMAP
0140018000
0BD003D000
2FD00B8000
BFD01F4000
BFD02E0000
1BD07C0000
0BD0B80000
0BD1F00000
0BD2E00000
0BD7CB9F40
024F4F9F40
001F1F9F40
003D2F5F40
007C2FAF40
00F43FFF40
02E03FFF40
03D0055F40
0B80001F40
0F40000F40
0600000000
ENDCHAR
STARTCHAR onehalf
ENCODING 189
SWIDTH 804 0
DWIDTH 19 0
BBX 17 20 1 -1
BITMAP
0140018000
0BD003D000
2FD00B8000
BFD01F4000
BFD02E0000
1BD07C0000
0BD0B80000
0BD1F00000
0BD2E00000
0BD7C7F800
024F5FFE00
001F3FBF40
003D3E1F40
007C2D2F40
00F401FF00
02E00BFC00
03D02FFA40
0B803FFFC0
0F402FFF80
0600000000
ENDCHAR
STARTCHAR threequarters
ENCODING 190
SWIDTH 842 0
DWIDTH 20 0
BBX 18 20 1 -1
BITMAP
0140006400
1FF800B800
7FFD01F000
7D7E03E000
157E07C000
03FC0F4000
12BE1F0000
BC3F3D0000
BEBEBC0000
3FFDF5F3E0
0AA2E2F3E0
0003D3F3E0
000B87E3E0
000F47E7E0
002E0BFFE0
007D0BFFE0
00B80157E0
01F00003E0
02E00002D0
0180000000
ENDCHAR
STARTCHAR questiondown
ENCODING 191
SWIDTH 511 0
DWIDTH 12 0
BBX 12 19 0 -6
BITMAP
006900
00FF40
00FF40
00FF40
006A00
000000
001400
00BF00
02FF00
0FFF00
2FFD00
7FD000
7F4078
7F80FE
3FEBFE
2FFFFD
0FFFF8
02FFD0
001500
ENDCHAR
STARTCHAR Agrave
ENCODING 192
SWIDTH 765 0
DWIDTH 18 0
BBX 18 24 0 -1
BITMAP
001E400000
002FFD0000
003FFF0000
001BFE0000
0000690000
0000600000
0002FC0000
0007FE0000
000BFF0000
000FFF4000
002FFFC000
003FFFD000
00BFFFF000
00FF9FF400
02FF0BFC00
03FE5BFD00
0BFFFFFF00
0FFFFFFF40
1FFFFFFFC0
3FE5557FD0
7FD0003FE0
BF80001FF0
2F40000FD0
0000000100
ENDCHAR
STARTCHAR Aacute
ENCODING 193
SWIDTH 765 0
DWIDTH 18 0
BBX 18 25 0 -1
BITMAP
0000014000
00006FC000
0007FFD000
000BFFD000
0007F90000
0001400000
0000600000
0002FC0000
0007FE0000
000BFF0000
000FFF4000
002FFFC000
003FFFD000
00BFFFF000
00FF9FF400
02FF0BFC00
03FE5BFD00
0BFFFFFF00
0FFFFFFF40
1FFFFFFFC0
3FE5557FD0
7FD0003FE0
BF80001FF0
2F40000FD0
0000000100
ENDCHAR
STARTCHAR Acircumflex
ENCODING 194
SWIDTH 765 0
DWIDTH 18 0
BBX 18 25 0 -1
BITMAP
0000500000
001BFE4000
007FFFE000
007FFFF000
003E5BD000
0000000000
0000600000
0002FC0000
0007FE0000
000BFF0000
000FFF4000
002FFFC000
003FFFD000
00BFFFF000
00FF9FF400
02FF0BFC00
03FE5BFD00
0BFFFFFF00
0FFFFFFF40
1FFFFFFFC0
3FE5557FD0
7FD0003FE0
BF80001FF0
2F40000FD0
0000000100
ENDCHAR
STARTCHAR Atilde
ENCODING 195
SWIDTH 765 0
DWIDTH 18 0
BBX 18 25 0 -1
BITMAP
0001404000
001FE6E000
007FFFF000
00BFFFD000
00286E4000
0000000000
0000600000
0002FC0000
0007FE0000
000BFF0000
000FFF4000
002FFFC000
003FFFD000
00BFFFF000
00FF9FF400
02FF0BFC00
03FE5BFD00
0BFFFFFF00
0FFFFFFF40
1FFFFFFFC0
3FE5557FD0
7FD0003FE0
BF80001FF0
2F40000FD0
0000000100
ENDCHAR
STARTCHAR Adieresis
ENCODING 196
SWIDTH 765 0
DWIDTH 18 0
BBX 18 25 0 -1
BITMAP
0014015000
00FF07F400
00FF0BF800
00FF0BF800
00BE06E400
0000000000
0000600000
0002FC0000
0007FE0000
000BFF0000
000FFF4000
002FFFC000
003FFFD000
00BFFFF000
00FF9FF400
02FF0BFC00
03FE5BFD00
0BFFFFFF00
0FFFFFFF40
1FFFFFFFC0
3FE5557FD0
7FD0003FE0
BF80001FF0
2F40000FD0
0000000100
ENDCHAR
STARTCHAR Aring
ENCODING 197
SWIDTH 765 0
DWIDTH 18 0
BBX 18 23 0 -1
BITMAP
0001F80000
0007AE0000
000B0B0000
000E074000
000BAF0000
0003FD0000
0007FE0000
000BFF0000
000FFF4000
002FFFC000
003FFFD000
00BFFFF000
00FF9FF400
02FF0BFC00
03FE5BFD00
0BFFFFFF00
0FFFFFFF40
1FFFFFFFC0
3FE5557FD0
7FD0003FE0
BF80001FF0
2F40000FD0
0000000100
ENDCHAR
STARTCHAR AE
ENCODING 198
SWIDTH 1148 0
DWIDTH 28 0
BBX 27 18 0 0
BITMAP
0000001AAAAAA4
000000BFFFFFF8
000001FFFFFFFC
000007FFFFFFFC
00001FFFEAAAA4
00007FFFE00000
0000FFFFE00000
0003FFAFFFFE00
000BFE2FFFFF40
002FFC2FFFFF40
00BFF42FFFFF00
02FFFFFFE55400
0BFFFFFFE00000
1FFFFFFFE55550
7FF9557FFFFFF8
FFD0002FFFFFFC
BF80002FFFFFFC
3E00000BFFFFF4
ENDCHAR
STARTCHAR Ccedilla
ENCODING 199
SWIDTH 679 0
DWIDTH 16 0
BBX 16 23 0 -5
BITMAP
0005AA40
006FFFF4
01FFFFFD
07FFFFFE
1FFF9BFD
2FF80064
3FE00000
7FC00000
7FC00000
7FC00000
7FC00000
3FD00000
2FF40010
1FFE41F8
0BFFFFFD
02FFFFFE
00BFFFF8
000BFF90
0001FD00
0001AF00
0000AF00
0001FD00
00006400
ENDCHAR
STARTCHAR Egrave
ENCODING 200
SWIDTH 638 0
DWIDTH 15 0
BBX 14 23 1 0
BITMAP
00F90000
01FFE000
01FFF800
006FF400
0001A000
6AAAAA40
FFFFFFE0
FFFFFFE0
FFFFFFE0
FFAAAA80
FF400000
FF400000
FFFFF800
FFFFFC00
FFFFFC00
FFFFF800
FF555000
FF400000
FF555500
FFFFFFD0
FFFFFFE0
FFFFFFE0
BFFFFFD0
ENDCHAR
STARTCHAR Eacute
ENCODING 201
SWIDTH 638 0
DWIDTH 15 0
BBX 14 24 1 0
BITMAP
00001000
0016F400
00BFF800
00FFF800
00BF9000
00540000
6AAAAA40
FFFFFFE0
FFFFFFE0
FFFFFFE0
FFAAAA80
FF400000
FF400000
FFFFF800
FFFFFC00
FFFFFC00
FFFFF800
FF555000
FF400000
FF555500
FFFFFFD0
FFFFFFE0
FFFFFFE0
BFFFFFD0
ENDCHAR
STARTCHAR Ecircumflex
ENCODING 202
SWIDTH 638 0
DWIDTH 15 0
BBX 14 24 1 0
BITMAP
00050000
01BFE400
0FFFFD00
0FFFFD00
07E5BC00
00000000
6AAAAA40
FFFFFFE0
FFFFFFE0
FFFFFFE0
FFAAAA80
FF400000
FF400000
FFFFF800
FFFFFC00
FFFFFC00
FFFFF800
FF555000
FF400000
FF555500
FFFFFFD0
FFFFFFE0
FFFFFFE0
BFFFFFD0
ENDCHAR
STARTCHAR Edieresis
ENCODING 203
SWIDTH 638 0
DWIDTH 15 0
BBX 14 24 1 0
BITMAP
05401400
1FE0BF00
1FE0FF40
1FE0FF40
0BD07E00
00000000
6AAAAA40
FFFFFFE0
FFFFFFE0
FFFFFFE0
FFAAAA80
FF400000
FF400000
FFFFF800
FFFFFC00
FFFFFC00
FFFFF800
FF555000
FF400000
FF555500
FFFFFFD0
FFFFFFE0
FFFFFFE0
BFFFFFD0
ENDCHAR
STARTCHAR Igrave
ENCODING 204
SWIDTH 267 0
DWIDTH 6 0
BBX 7 23 -1 0
BITMAP
B900
FFE4
FFFC
6FF8
01A4
0290
0BF4
0FF4
0FF4
0FF4
0FF4
0FF4
0FF4
0FF4
0FF4
0FF4
0FF4
0FF4
0FF4
0FF4
0FF4
0FF4
07E0
ENDCHAR
STARTCHAR Iacute
ENCODING 205
SWIDTH 269 0
DWIDTH 6 0
BBX 8 24 0 0
BITMAP
0014
06FD
7FFE
7FFD
3F90
1400
0A40
2FD0
3FD0
3FD0
3FD0
3FD0
3FD0
3FD0
3FD0
3FD0
3FD0
3FD0
3FD0
3FD0
3FD0
3FD0
3FD0
1F80
ENDCHAR
STARTCHAR Icircumflex
ENCODING 206
SWIDTH 270 0
DWIDTH 6 0
BBX 10 24 -2 0
BITMAP
005000
1BFE40
7FFFE0
7FFFF0
3E4BD0
000000
00A400
02FD00
03FD00
03FD00
03FD00
03FD00
03FD00
03FD00
03FD00
03FD00
03FD00
03FD00
03FD00
03FD00
03FD00
03FD00
03FD00
01F800
ENDCHAR
STARTCHAR Idieresis
ENCODING 207
SWIDTH 268 0
DWIDTH 6 0
BBX 11 24 -2 0
BITMAP
140150
FF07F4
FF4BF8
FF0BF8
7E06E4
000000
00A400
02FD00
03FD00
03FD00
03FD00
03FD00
03FD00
03FD00
03FD00
03FD00
03FD00
03FD00
03FD00
03FD00
03FD00
03FD00
02FD00
01F800
ENDCHAR
STARTCHAR Eth
ENCODING 208
SWIDTH 775 0
DWIDTH 19 0
BBX 18 18 0 0
BITMAP
01AAA50000
07FFFFD000
07FFFFF800
07FFFFFE00
07FEAFFF80
07FC01FFD0
07FC007FE0
1BFD402FF0
7FFFC01FF0
7FFFC01FF0
2FFE401FF0
07FC003FE0
07FC00BFD0
07FD57FF80
07FFFFFF40
07FFFFFD00
07FFFFE400
02FFFE4000
ENDCHAR
STARTCHAR Ntilde
ENCODING 209
SWIDTH 720 0
DWIDTH 17 0
BBX 16 24 1 0
BITMAP
00140400
00BF5F00
02FFFF40
03FFFE00
01D2F800
00000000
69000064
FF4002FD
FFC003FD
FFE003FD
FFF803FD
FFFD03FD
FFFF03FD
FFFF83FD
FFBFE3FD
FF6FF7FD
FF4FFFFD
FF47FFFD
FF41FFFD
FF40BFFD
FF403FFD
FF401FFD
FF0007FD
BE0002F8
ENDCHAR
STARTCHAR Ograve
ENCODING 210
SWIDTH 775 0
DWIDTH 19 0
BBX 18 24 0 -1
BITMAP
001E900000
002FFE0000
002FFF4000
000AFF0000
00001A0000
0006A90000
007FFFE000
01FFFFFD00
07FFFFFF00
0FFF9BFF80
2FF800FFD0
3FE0003FE0
7FC0002FF0
7FC0001FF0
7FC0001FF0
7FC0001FF0
3FD0002FE0
3FF0007FD0
1FFD02FFC0
0BFFFFFF40
03FFFFFE00
00BFFFF400
001BFF9000
0000540000
ENDCHAR
STARTCHAR Oacute
ENCODING 211
SWIDTH 775 0
DWIDTH 19 0
BBX 18 25 0 -1
BITMAP
0000010000
00006FC000
0007FFD000
000BFFD000
0007F90000
0001400000
0006A90000
007FFFE000
01FFFFFD00
07FFFFFF00
0FFF9BFF80
2FF800FFD0
3FE0003FE0
7FC0002FF0
7FC0001FF0
7FC0001FF0
7FC0001FF0
3FD0002FE0
3FF0007FD0
1FFD02FFC0
0BFFFFFF40
03FFFFFE00
00BFFFF400
001BFF9000
0000540000
ENDCHAR
STARTCHAR Ocircumflex
ENCODING 212
SWIDTH 775 0
DWIDTH 19 0
BBX 18 25 0 -1
BITMAP
0000100000
000AFE4000
007FFFF000
007FFFF000
002E4BE000
0000000000
0006A90000
007FFFE000
01FFFFFD00
07FFFFFF00
0FFF9BFF80
2FF800FFD0
3FE0003FE0
7FC0002FF0
7FC0001FF0
7FC0001FF0
7FC0001FF0
3FD0002FE0
3FF0007FD0
1FFD02FFC0
0BFFFFFF40
03FFFFFE00
00BFFFF400
001BFF9000
0000540000
ENDCHAR
STARTCHAR Otilde
ENCODING 213
SWIDTH 775 0
DWIDTH 19 0
BBX 18 25 0 -1
BITMAP
0001404000
000BF9F400
002FFFF400
003FFFF000
001D1F8000
0000000000
0006A90000
007FFFE000
01FFFFFD00
07FFFFFF00
0FFF9BFF80
2FF800FFD0
3FE0003FE0
7FC0002FF0
7FC0001FF0
7FC0001FF0
7FC0001FF0
3FD0002FE0
3FF0007FD0
1FFD02FFC0
0BFFFFFF40
03FFFFFE00
00BFFFF400
001BFF9000
0000540000
ENDCHAR
STARTCHAR Odieresis
ENCODING 214
SWIDTH 775 0
DWIDTH 19 0
BBX 18 25 0 -1
BITMAP
0014015000
00FF07F400
00FF0BF800
00FF0BF800
00BE06E000
0000000000
0006A90000
007FFFE000
01FFFFFD00
07FFFFFF00
0FFF9BFF80
2FF800FFD0
3FE0003FE0
7FC0002FF0
7FC0001FF0
7FC0001FF0
7FC0001FF0
3FD0002FE0
3FF0007FD0
1FFD02FFC0
0BFFFFFF40
03FFFFFE00
00BFFFF400
001BFF9000
0000540000
ENDCHAR
STARTCHAR multiply
ENCODING 215
SWIDTH 521 0
DWIDTH 13 0
BBX 12 12 0 0
BITMAP
1E0078
3F81FE
7FE7FE
2FFFFC
0BFFF0
02FFD0
07FFE0
1FFFF8
3FFBFE
7FC2FE
2F00BD
040010
ENDCHAR
STARTCHAR Oslash
ENCODING 216
SWIDTH 775 0
DWIDTH 19 0
BBX 18 21 0 -2
BITMAP
000000A400
0006AAFD00
007FFFFD00
01FFFFFD00
07FFFFFF00
0FFFAFFF80
2FF83FFFD0
3FE07FFFE0
7FC0FFAFE0
7FC1FF1FF0
7FC2FE1FF0
7FC7FC1FF0
3FDBF82FE0
2FFFF07FD0
1FFFE2FFC0
0BFFFFFF40
03FFFFFE00
01FFFFF400
01FFFF9000
00BD540000
0014000000
ENDCHAR
STARTCHAR Ugrave
ENCODING 217
SWIDTH 726 0
DWIDTH 17 0
BBX 16 24 1 -1
BITMAP
02E40000
03FF9000
03FFF000
01BFE000
00069000
690000A4
FF0002FD
FF4002FD
FF4002FD
FF4002FD
FF4002FD
FF4002FD
FF4002FD
FF4002FD
FF4002FD
FF4003FD
FF8003FD
BFC00BFC
7FE41FF8
2FFFFFF4
0FFFFFD0
07FFFF80
00BFF900
00014000
ENDCHAR
STARTCHAR Uacute
ENCODING 218
SWIDTH 726 0
DWIDTH 17 0
BBX 16 25 1 -1
BITMAP
00000400
0001BF00
001FFF40
002FFF40
001FE400
00050000
690000A4
FF0002FD
FF4002FD
FF4002FD
FF4002FD
FF4002FD
FF4002FD
FF4002FD
FF4002FD
FF4002FD
FF4003FD
FF8003FD
BFC00BFC
7FE41FF8
2FFFFFF4
0FFFFFD0
07FFFF80
00BFF900
00014000
ENDCHAR
STARTCHAR Ucircumflex
ENCODING 219
SWIDTH 726 0
DWIDTH 17 0
BBX 16 25 1 -1
BITMAP
00014000
006FF900
02FFFF80
02FFFF80
00F96F40
00000000
690000A4
FF0002FD
FF4002FD
FF4002FD
FF4002FD
FF4002FD
FF4002FD
FF4002FD
FF4002FD
FF4002FD
FF4003FD
FF8003FD
BFC00BFC
7FE41FF8
2FFFFFF4
0FFFFFD0
07FFFF80
00BFF900
00014000
ENDCHAR
STARTCHAR Udieresis
ENCODING 220
SWIDTH 726 0
DWIDTH 17 0
BBX 16 25 1 -1
BITMAP
01500500
07F43FC0
0BF87FC0
0BF83FC0
06E42F80
00000000
690000A4
FF0002FD
FF4002FD
FF4002FD
FF4002FD
FF4002FD
FF4002FD
FF4002FD
FF4002FD
FF4002FD
FF4003FD
FF8003FD
BFC00BFC
7FE41FF8
2FFFFFF4
0FFFFFD0
07FFFF80
00BFF900
00014000
ENDCHAR
STARTCHAR Yacute
ENCODING 221
SWIDTH 686 0
DWIDTH 16 0
BBX 16 24 0 0
BITMAP
00000400
0001BE00
002FFF00
002FFF00
001FE400
00050000
1A000064
7F8001FE
BFD002FF
3FF007FE
1FF80FFC
0BFC2FF4
07FE7FE0
01FFFFC0
00BFFF40
007FFE00
001FFC00
000FF400
000FF400
000FF400
000FF400
000FF400
000FF400
0007F000
ENDCHAR
STARTCHAR Thorn
ENCODING 222
SWIDTH 634 0
DWIDTH 15 0
BBX 14 18 1 0
BITMAP
69000000
FF000000
FF540000
FFFFE400
FFFFFD00
FFFFFF40
FFFFFFC0
FF40BFD0
FF402FD0
FF402FE0
FF407FD0
FFAAFFC0
FFFFFF80
FFFFFE00
FFFFF800
FFAA4000
FF400000
BE000000
ENDCHAR
STARTCHAR germandbls
ENCODING 223
SWIDTH 633 0
DWIDTH 15 0
BBX 14 19 1 -1
BITMAP
06FFA000
2FFFFC00
BFFFFD00
FFEBFD00
FF42FD00
FF07FC00
FF0FF400
FF1FE000
FF1FE000
FF0FF800
FF07FF40
FF01FFC0
FF002FD0
FF001FE0
FF1FBFE0
FF2FFFD0
FF2FFFC0
FF1BFE00
69000000
ENDCHAR
STARTCHAR agrave
ENCODING 224
SWIDTH 596 0
DWIDTH 14 0
BBX 14 19 0 0
BITMAP
00240000
00BF9000
00FFFC00
00BFFC00
0006F800
00001000
00690A40
02FFEFD0
0BFFFFD0
2FFFFFD0
3FFAFFD0
7FD07FD0
7FC03FD0
7FC07FD0
3FE5FFD0
2FFFFFD0
0FFFFFD0
07FFFFD0
00BE5F80
ENDCHAR
STARTCHAR aacute
ENCODING 225
SWIDTH 596 0
DWIDTH 14 0
BBX 14 19 0 0
BITMAP
00005400
001BFC00
00BFFD00
00BFF800
007E5000
00100000
00690A40
02FFEFD0
0BFFFFD0
2FFFFFD0
3FFAFFD0
7FD07FD0
7FC03FD0
7FC07FD0
3FE5FFD0
2FFFFFD0
0FFFFFD0
07FFFFD0
00BE5F80
ENDCHAR
STARTCHAR acircumflex
ENCODING 226
SWIDTH 596 0
DWIDTH 14 0
BBX 14 19 0 0
BITMAP
00054000
00BFF900
03FFFF80
02FFFF40
01E42E00
00000000
00690A40
02FFEFD0
0BFFFFD0
2FFFFFD0
3FFAFFD0
7FD07FD0
7FC03FD0
7FC07FD0
3FE5FFD0
2FFFFFD0
0FFFFFD0
07FFFFD0
00BE5F80
ENDCHAR
STARTCHAR atilde
ENCODING 227
SWIDTH 596 0
DWIDTH 14 0
BBX 14 19 0 0
BITMAP
00190500
00FFAF40
02FFFF40
03FBFE00
0091A400
00000000
00690A40
02FFEFD0
0BFFFFD0
2FFFFFD0
3FFAFFD0
7FD07FD0
7FC03FD0
7FC07FD0
3FE5FFD0
2FFFFFD0
0FFFFFD0
07FFFFD0
00BE5F80
ENDCHAR
STARTCHAR adieresis
ENCODING 228
SWIDTH 596 0
DWIDTH 14 0
BBX 14 19 0 0
BITMAP
01901A40
07F83FC0
0BF83FD0
07F83FC0
02A01A40
00000000
00690A40
02FFEFD0
0BFFFFD0
2FFFFFD0
3FFAFFD0
7FD07FD0
7FC03FD0
7FC07FD0
3FE5FFD0
2FFFFFD0
0FFFFFD0
07FFFFD0
00BE5F80
ENDCHAR
STARTCHAR aring
ENCODING 229
SWIDTH 596 0
DWIDTH 14 0
BBX 14 18 0 0
BITMAP
000BD000
001DB000
00283400
001EB000
00069000
00690A40
02FFEFD0
0BFFFFD0
2FFFFFD0
3FFAFFD0
7FD07FD0
7FC03FD0
7FC07FD0
3FE5FFD0
2FFFFFD0
0FFFFFD0
07FFFFD0
00BE5F80
ENDCHAR
STARTCHAR ae
ENCODING 230
SWIDTH 910 0
DWIDTH 22 0
BBX 22 14 0 -1
BITMAP
01AA801A9000
0BFFF6FFFD00
2FFFFFFFFF40
3FFFFFFFFFC0
1FD1FFF43FD0
0640BFD07FD0
01A97FFFFFC0
2FFFFFFFFF40
7FA6BFE00000
7F407FF96F00
7FEBFFFFFF40
3FFFF7FFFF40
0BFF80BFF900
005000000000
ENDCHAR
STARTCHAR ccedilla
ENCODING 231
SWIDTH 524 0
DWIDTH 13 0
BBX 12 18 0 -5
BITMAP
006F90
02FFFD
0FFFFF
2FFFFE
3FFAFD
7FD010
7FC000
7FD000
3FF5B8
2FFFFE
1FFFFF
07FFFD
00BFE4
003FC0
002BD0
002BD0
003FC0
001900
ENDCHAR
STARTCHAR egrave
ENCODING 232
SWIDTH 573 0
DWIDTH 14 0
BBX 13 20 0 -1
BITMAP
00500000
01FE4000
02FFF400
01FFF400
001BF000
00005000
006BA400
02FFFD00
0FFFFF40
2FFFFF80
3FE07FC0
7FD07FC0
7FFFFFC0
7FFFFF40
3FD00000
2FF96E00
1FFFFF40
07FFFF40
01BFFE00
00055000
ENDCHAR
STARTCHAR eacute
ENCODING 233
SWIDTH 573 0
DWIDTH 14 0
BBX 13 20 0 -1
BITMAP
00006400
001BF800
00BFFC00
00BFF800
00BE4000
00100000
006BA400
02FFFD00
0FFFFF40
2FFFFF80
3FE07FC0
7FD07FC0
7FFFFFC0
7FFFFF40
3FD00000
2FF96E00
1FFFFF40
07FFFF40
01BFFE00
00055000
ENDCHAR
STARTCHAR ecircumflex
ENCODING 234
SWIDTH 573 0
DWIDTH 14 0
BBX 13 20 0 -1
BITMAP
00054000
01BFF800
0BFFFE00
07FFFE00
02E07D00
00000000
006BA400
02FFFD00
0FFFFF40
2FFFFF80
3FE07FC0
7FD07FC0
7FFFFFC0
7FFFFF40
3FD00000
2FF96E00
1FFFFF40
07FFFF40
01BFFE00
00055000
ENDCHAR
STARTCHAR edieresis
ENCODING 235
SWIDTH 573 0
DWIDTH 14 0
BBX 13 20 0 -1
BITMAP
06401900
1FE0FF40
1FE0FF40
1FE0FF40
0A906900
00000000
006BA400
02FFFD00
0FFFFF40
2FFFFF80
3FE07FC0
7FD07FC0
7FFFFFC0
7FFFFF40
3FD00000
2FF96E00
1FFFFF40
07FFFF40
01BFFE00
00055000
ENDCHAR
STARTCHAR igrave
ENCODING 236
SWIDTH 255 0
DWIDTH 6 0
BBX 7 19 -1 0
BITMAP
6400
BF90
FFF8
BFFC
06F8
0010
0690
0FF0
0FF0
0FF0
0FF0
0FF0
0FF0
0FF0
0FF0
0FF0
0FF0
0FF0
0BE0
ENDCHAR
STARTCHAR iacute
ENCODING 237
SWIDTH 255 0
DWIDTH 6 0
BBX 8 19 0 0
BITMAP
0014
1AFC
7FFD
BFFD
7F90
1000
1A40
3FC0
3FC0
3FC0
3FC0
3FC0
3FC0
3FC0
3FC0
3FC0
3FC0
3FC0
2F80
ENDCHAR
STARTCHAR icircumflex
ENCODING 238
SWIDTH 255 0
DWIDTH 6 0
BBX 10 19 -2 0
BITMAP
005400
1BFF80
BFFFE0
BFFFE0
2E07C0
000000
01A400
03FC00
03FC00
03FC00
03FC00
03FC00
03FC00
03FC00
03FC00
03FC00
03FC00
03FC00
02F800
ENDCHAR
STARTCHAR idieresis
ENCODING 239
SWIDTH 255 0
DWIDTH 6 0
BBX 12 19 -3 0
BITMAP
190064
3FC2FD
7FC2FD
7FC2FD
1A41A8
000000
006900
00FF00
00FF40
00FF40
00FF40
00FF40
00FF40
00FF40
00FF40
00FF40
00FF40
00FF00
00BE00
ENDCHAR
STARTCHAR eth
ENCODING 240
SWIDTH 585 0
DWIDTH 14 0
BBX 14 21 0 -1
BITMAP
00004000
0012D000
00FFD000
01FFD000
00BFF400
00BFFC00
00B4FE00
00157F40
01FFEF80
0BFFFFC0
1FFFFFD0
3FFAFFD0
7FD07FD0
7F802FD0
7FC03FD0
7FE0BFC0
2FFFFF80
1FFFFF40
07FFFD00
00BFE000
00050000
ENDCHAR
STARTCHAR ntilde
ENCODING 241
SWIDTH 606 0
DWIDTH 15 0
BBX 13 19 1 0
BITMAP
01501000
07FDBC00
1FFFFC00
1FAFF400
06069000
00000000
691A4000
FFBFF400
FFFFFD00
FFFFFE00
FFEBFF40
FF80FF40
FF40BF80
FF00BF80
FF00BF80
FF00BF80
FF00BF80
FF00BF80
BE007F40
ENDCHAR
STARTCHAR ograve
ENCODING 242
SWIDTH 600 0
DWIDTH 14 0
BBX 14 20 0 -1
BITMAP
00500000
00FF9000
01FFF800
00FFF800
001AF400
00001000
006FA000
02FFFD00
0BFFFF40
2FFFFFC0
3FF5BFD0
7FD02FE0
7FC02FE0
7FC02FE0
3FE07FE0
2FFFFFC0
0FFFFF80
07FFFE00
00BFE400
00010000
ENDCHAR
STARTCHAR oacute
ENCODING 243
SWIDTH 600 0
DWIDTH 14 0
BBX 14 20 0 -1
BITMAP
00005400
001BFC00
00BFFD00
00BFF800
007E4000
00100000
006FA000
02FFFD00
0BFFFF40
2FFFFFC0
3FF5BFD0
7FD02FE0
7FC02FE0
7FC02FE0
3FE07FE0
2FFFFFC0
0FFFFF80
07FFFE00
00BFE400
00010000
ENDCHAR
STARTCHAR ocircumflex
ENCODING 244
SWIDTH 600 0
DWIDTH 14 0
BBX 14 20 0 -1
BITMAP
00064000
01BFF800
07FFFF00
07FFFF00
02E46D00
00000000
006FA000
02FFFD00
0BFFFF40
2FFFFFC0
3FF5BFD0
7FD02FE0
7FC02FE0
7FC02FE0
3FE07FE0
2FFFFFC0
0FFFFF80
07FFFE00
00BFE400
00010000
ENDCHAR
STARTCHAR otilde
ENCODING 245
SWIDTH 600 0
DWIDTH 14 0
BBX 14 20 0 -1
BITMAP
00640400
02FF7E00
07FFFF00
07EFFD00
0182A400
00000000
006FA000
02FFFD00
0BFFFF40
2FFFFFC0
3FF5BFD0
7FD02FE0
7FC02FE0
7FC02FE0
3FE07FE0
2FFFFFC0
0FFFFF80
07FFFE00
00BFE400
00010000
ENDCHAR
STARTCHAR odieresis
ENCODING 246
SWIDTH 600 0
DWIDTH 14 0
BBX 14 20 0 -1
BITMAP
06501900
0FF0BF40
1FF0BF40
1FF0BF40
06902A00
00000000
006FA000
02FFFD00
0BFFFF40
2FFFFFC0
3FF5BFD0
7FD02FE0
7FC02FE0
7FC02FE0
3FE07FE0
2FFFFFC0
0FFFFF80
07FFFE00
00BFE400
00010000
ENDCHAR
STARTCHAR divide
ENCODING 247
SWIDTH 503 0
DWIDTH 12 0
BBX 12 13 0 0
BITMAP
00BE00
00FF00
00FF00
006900
055554
7FFFFD
7FFFFD
3FFFFD
000000
007D00
00FF00
00FF00
007D00
ENDCHAR
STARTCHAR oslash
ENCODING 248
SWIDTH 600 0
DWIDTH 14 0
BBX 14 21 0 -4
BITMAP
00000400
00002F80
00003FC0
0000BF80
006FFF40
02FFFF00
0BFFFF40
2FFFFFC0
3FF5BFD0
7FD02FE0
7FC02FE0
7FC02FE0
3FE07FE0
2FFFFFD0
1FFFFF80
07FFFE00
0BFFE400
1FF50000
2FE00000
2FC00000
06400000
ENDCHAR
STARTCHAR ugrave
ENCODING 249
SWIDTH 606 0
DWIDTH 15 0
BBX 13 19 1 0
BITMAP
01400000
03FE4000
07FFE000
03FFE000
006BD000
00004000
69002A00
FF00BF40
FF40BF80
FF40BF80
FF40BF80
FF40BF80
FF40BF80
FF40BF80
BFD6FF80
7FFFFF80
3FFFFF80
0FFFBF80
02B97F40
ENDCHAR
STARTCHAR uacute
ENCODING 250
SWIDTH 606 0
DWIDTH 15 0
BBX 13 19 1 0
BITMAP
00005000
001BF400
01FFF800
01FFF400
00FE4000
00100000
69002A00
FF00BF40
FF40BF80
FF40BF80
FF40BF80
FF40BF80
FF40BF80
FF40BF80
BFD6FF80
7FFFFF80
3FFFFF80
0FFFBF80
02B97F40
ENDCHAR
STARTCHAR ucircumflex
ENCODING 251
SWIDTH 606 0
DWIDTH 15 0
BBX 13 19 1 0
BITMAP
00190000
06FFE400
1FFFFC00
1FFFFC00
0B91B400
00000000
69002A00
FF00BF40
FF40BF80
FF40BF80
FF40BF80
FF40BF80
FF40BF80
FF40BF80
BFD6FF80
7FFFFF80
3FFFFF80
0FFFBF80
02B97F40
ENDCHAR
STARTCHAR udieresis
ENCODING 252
SWIDTH 606 0
DWIDTH 15 0
BBX 13 19 1 0
BITMAP
1A406400
3FC2FD00
3FC2FE00
3FC2FE00
1A40A800
00000000
69002A00
FF00BF40
FF40BF80
FF40BF80
FF40BF80
FF40BF80
FF40BF80
FF40BF80
BFD6FF80
7FFFFF80
3FFFFF80
0FFFBF80
02B97F40
ENDCHAR
STARTCHAR yacute
ENCODING 253
SWIDTH 604 0
DWIDTH 15 0
BBX 14 25 0 -6
BITMAP
00001400
0006FD00
007FFD00
007FFD00
003F9000
00140000
1A000680
7F800FF0
BFD01FF0
3FE03FE0
1FF47FD0
0BFCBF80
07FEFF40
02FFFF00
00FFFD00
007FFC00
003FF800
002FF000
003FE000
007FC000
00FF8000
01FF4000
02FE0000
01FD0000
00640000
ENDCHAR
STARTCHAR thorn
ENCODING 254
SWIDTH 580 0
DWIDTH 14 0
BBX 13 25 1 -6
BITMAP
6D000000
FE000000
FF000000
FF000000
FF000000
FF000000
FF1A4000
FFFFE000
FFFFF800
FFFFFD00
FFEBFF00
FF41FF40
FF00FF40
FF00FF40
FFD7FF00
FFFFFE00
FFFFFC00
FFFFF400
FF6F8000
FF000000
FF000000
FF000000
FE000000
FE000000
14000000
ENDCHAR
STARTCHAR ydieresis
ENCODING 255
SWIDTH 604 0
DWIDTH 15 0
BBX 14 25 0 -6
BITMAP
01901900
0BF47F80
0FF47FC0
0BF47F80
06A02A40
00000000
1A000680
7F800FF0
BFD01FF0
3FE03FE0
1FF47FD0
0BFCBF80
07FEFF40
02FFFF00
00FFFD00
007FFC00
003FF800
002FF000
003FE000
007FC000
00FF8000
01FF4000
02FE0000
01FD0000
00640000
ENDCHAR
STARTCHAR dotlessi
ENCODING 305
SWIDTH 255 0
DWIDTH 6 0
BBX 4 13 1 0
BITMAP
69
FF
FF
FF
FF
FF
FF
FF
FF
FF
FF
FF
BE
ENDCHAR
STARTCHAR Lslash
ENCODING 321
SWIDTH 687 0
DWIDTH 16 0
BBX 16 18 0 0
BITMAP
00640000
02FD0000
02FE0000
02FE0000
02FE0000
02FE0000
02FEB800
02FFFC00
2FFFFC00
7FFF9000
3FFE0000
16FE0000
02FE0000
02FE0000
02FEAAA9
02FFFFFE
02FFFFFF
01FFFFFE
ENDCHAR
STARTCHAR lslash
ENCODING 322
SWIDTH 468 0
DWIDTH 11 0
BBX 11 19 0 0
BITMAP
00A400
02FD00
02FD00
02FD00
02FD00
02FD00
02FD00
02FEB4
03FFF8
6FFFF8
BFFE50
7FFD00
17FD00
02FD00
02FE00
02FFD0
02FFE0
01FFE0
006FD0
ENDCHAR
STARTCHAR OE
ENCODING 338
SWIDTH 1092 0
DWIDTH 26 0
BBX 26 18 0 0
BITMAP
0005AAAAAAAA40
006FFFFFFFFFD0
01FFFFFFFFFFE0
07FFFFFFFFFFD0
0FFFAAFFAAAA80
2FF800FF000000
3FE000FF000000
7FC000FFFFF400
7FC000FFFFFC00
7FC000FFFFFC00
7FC000FFFFF800
3FD000FF555000
2FF400FF000000
1FFE41FF555500
0BFFFFFFFFFFD0
02FFFFFFFFFFE0
00BFFFFFFFFFE0
000AFFFFFFFFD0
ENDCHAR
STARTCHAR oe
ENCODING 339
SWIDTH 944 0
DWIDTH 23 0
BBX 22 14 0 -1
BITMAP
006B901AA400
02FFFDBFFF40
0BFFFFFFFFD0
2FFFFFFFFFE0
3FF5BFF81FF0
7FD02FF41FF0
7FC02FFFFFE0
7FC02FFFFF80
3FE07FF40000
2FFFFFFE6B80
1FFFFFFFFFD0
07FFFEFFFFD0
00BFE42FFE40
000500000000
ENDCHAR
STARTCHAR Scaron
ENCODING 352
SWIDTH 583 0
DWIDTH 14 0
BBX 14 25 0 -1
BITMAP
01401400
07F5FD00
0BFFFE00
07FFFD00
006F9000
00000000
00AE9000
07FFFD00
1FFFFF40
2FFFFF40
3FE0BE00
3FD01400
3FE00000
2FFF9000
0FFFFE00
06FFFF80
006FFFC0
0000BFD0
1E003FD0
7FD07FD0
7FFAFFC0
2FFFFF80
0BFFFE00
01FFE400
00050000
ENDCHAR
STARTCHAR scaron
ENCODING 353
SWIDTH 489 0
DWIDTH 12 0
BBX 11 20 0 -1
BITMAP
090150
2FEBF0
3FFFF4
2FFFE0
01B900
000000
01BE80
1FFFF4
2FFFF4
3FD6E0
3FD000
2FFF90
1FFFF4
07FFFC
046BFC
2F97FC
7FFFFC
7FFFF4
0BFF90
001000
ENDCHAR
STARTCHAR Ydieresis
ENCODING 376
SWIDTH 686 0
DWIDTH 16 0
BBX 16 24 0 0
BITMAP
00500540
03FC1FD0
03FC2FE0
03FC2FE0
02F81B90
00000000
1A000064
7F8001FE
BFD002FF
3FF007FE
1FF80FFC
0BFC2FF4
07FE7FE0
01FFFFC0
00BFFF40
007FFE00
001FFC00
000FF400
000FF400
000FF400
000FF400
000FF400
000FF400
0007F000
ENDCHAR
STARTCHAR Zcaron
ENCODING 381
SWIDTH 643 0
DWIDTH 15 0
BBX 15 24 0 0
BITMAP
00400400
02F9BF00
03FFFF40
02FFFF40
006FE400
00000000
1AAAAA90
7FFFFFF4
7FFFFFF4
7FFFFFF4
1AAAFFE0
0001FF80
0003FF00
000BFD00
002FF800
007FF000
00FFD000
02FF4000
07FE0000
0FFD0000
2FFFFFF4
7FFFFFF8
7FFFFFF8
2FFFFFF4
ENDCHAR
STARTCHAR zcaron
ENCODING 382
SWIDTH 586 0
DWIDTH 14 0
BBX 14 19 0 0
BITMAP
01401400
03FAFE00
07FFFF00
06FFFE00
001B9000
00000000
1AAAAA00
2FFFFFC0
3FFFFFC0
2FFFFF80
06ABFF00
001FF800
00BFE000
02FF8000
0BFE5500
2FFFFFD0
7FFFFFD0
7FFFFFD0
2FFFFFC0
ENDCHAR
STARTCHAR florin
ENCODING 402
SWIDTH 529 0
DWIDTH 13 0
BBX 13 24 0 -6
BITMAP
0000AA00
0007FF40
001FFF40
002FFF00
003FE400
007FC000
06FFEE00
0FFFFF40
0FFFFF40
0FFFFF00
01BF9400
00FF4000
00FF4000
00FF0000
00FF0000
01FF0000
01FE0000
01FE0000
02FE0000
2BFD0000
BFFC0000
FFF40000
FFD00000
15000000
ENDCHAR
STARTCHAR circumflex
ENCODING 710
SWIDTH 603 0
DWIDTH 14 0
BBX 10 5 2 14
BITMAP
006400
1BFF80
7FFFF0
7FFFF0
2E06D0
ENDCHAR
STARTCHAR caron
ENCODING 711
SWIDTH 600 0
DWIDTH 14 0
BBX 10 5 2 14
BITMAP
140140
7FAFE0
7FFFF0
6FFFE0
02B900
ENDCHAR
STARTCHAR dotaccent
ENCODING 729
SWIDTH 285 0
DWIDTH 7 0
BBX 5 4 1 17
BITMAP
7F40
BF80
BF80
7F40
ENDCHAR
STARTCHAR ring
ENCODING 730
SWIDTH 378 0
DWIDTH 9 0
BBX 7 6 1 16
BITMAP
1BD0
3EF4
7438
7438
3EF4
1FD0
ENDCHAR
STARTCHAR ogonek
ENCODING 731
SWIDTH 570 0
DWIDTH 14 0
BBX 5 6 4 -5
BITMAP
1A40
7F80
BA40
BA40
7FC0
1A00
ENDCHAR
STARTCHAR tilde
ENCODING 732
SWIDTH 584 0
DWIDTH 14 0
BBX 10 5 2 14
BITMAP
064140
7FEBD0
FFFFD0
FEFF80
646900
ENDCHAR
STARTCHAR endash
ENCODING 8211
SWIDTH 561 0
DWIDTH 13 0
BBX 13 5 0 4
BITMAP
1AAAA940
BFFFFFC0
BFFFFFC0
7FFFFFC0
15555500
ENDCHAR
STARTCHAR emdash
ENCODING 8212
SWIDTH 693 0
DWIDTH 17 0
BBX 17 5 0 4
BITMAP
1AAAAAA900
BFFFFFFF00
BFFFFFFF40
7FFFFFFF00
1555555500
ENDCHAR
STARTCHAR quoteleft
ENCODING 8216
SWIDTH 237 0
DWIDTH 6 0
BBX 5 9 0 9
BITMAP
0140
0BC0
1F40
3E00
3F40
7FC0
7FC0
7FC0
1A40
ENDCHAR
STARTCHAR quoteright
ENCODING 8217
SWIDTH 237 0
DWIDTH 6 0
BBX 5 9 0 9
BITMAP
1A40
7FC0
7FC0
7FC0
2FC0
0F80
1F00
7E00
2400
ENDCHAR
STARTCHAR quotesinglbase
ENCODING 8218
SWIDTH 237 0
DWIDTH 6 0
BBX 5 9 0 -4
BITMAP
1500
7FC0
7FC0
7FC0
2FC0
0F80
1F40
7E00
6400
ENDCHAR
STARTCHAR quotedblleft
ENCODING 8220
SWIDTH 482 0
DWIDTH 12 0
BBX 11 9 0 9
BITMAP
014014
0BC0BC
1F42F4
3E03D0
3F47E4
7FC7FC
7FCBFC
7FC7FC
1A42A4
ENDCHAR
STARTCHAR quotedblright
ENCODING 8221
SWIDTH 482 0
DWIDTH 12 0
BBX 11 9 0 9
BITMAP
1A41A0
7FC7F8
7FCBFC
7FC7FC
2FC2F8
0F80F8
1F02F0
7E07D0
240640
ENDCHAR
STARTCHAR quotedblbase
ENCODING 8222
SWIDTH 482 0
DWIDTH 12 0
BBX 11 9 0 -4
BITMAP
150150
7FC7F8
7FCBFC
7FC7FC
2FC3F8
0F80F8
1F41F0
7E07D0
640640
ENDCHAR
STARTCHAR dagger
ENCODING 8224
SWIDTH 527 0
DWIDTH 13 0
BBX 13 23 0 -5
BITMAP
007E0000
00BF4000
00BF4000
00BF4000
00BF4000
15BF9400
7FFFFF00
BFFFFF40
BFFFFF00
15FF9500
00BF4000
00BF4000
00BF4000
00BF4000
00BF4000
00BF4000
00BF4000
00BF4000
00BF4000
00BF4000
00BF4000
00BF4000
00190000
ENDCHAR
STARTCHAR daggerdbl
ENCODING 8225
SWIDTH 527 0
DWIDTH 13 0
BBX 13 23 0 -5
BITMAP
007E0000
00BF4000
00BF4000
00BF4000
00BF4000
15BF9400
7FFFFF00
BFFFFF40
BFFFFF00
15FF9500
00BF4000
00BF4000
00BF4000
6EFFEE00
BFFFFF40
BFFFFF40
6EFFFE00
00BF4000
00BF4000
00BF4000
00BF4000
00BF4000
00190000
ENDCHAR
STARTCHAR bullet
ENCODING 8226
SWIDTH 342 0
DWIDTH 8 0
BBX 8 7 0 4
BITMAP
1BF4
3FFD
7FFD
7FFE
7FFD
3FFC
0BE4
ENDCHAR
STARTCHAR ellipsis
ENCODING 8230
SWIDTH 911 0
DWIDTH 22 0
BBX 22 5 0 0
BITMAP
150015001540
7FC03FC03FC0
7FC07FC07FD0
7FC07FC03FD0
2F802F802F80
ENDCHAR
STARTCHAR perthousand
ENCODING 8240
SWIDTH 1223 0
DWIDTH 29 0
BBX 28 20 1 -1
BITMAP
00000024000000
069000B8000000
2FFC01F4000000
BFFE02E0000000
FD7F07C0000000
F82F0B80000000
F82F1F00000000
BEBE2E00000000
7FFD7C00000000
1FF8F400000000
0141F0BE402B90
0003D3FFD0BFF4
0007CBFFF1FFFC
000F4BC2F2F4BD
002E0F81F6F07D
003D0BC2F2F07D
00B80BFFF1FFFC
00F403FFD0BFF8
02E000BF402FE0
01800000000000
ENDCHAR
STARTCHAR guilsinglleft
ENCODING 8249
SWIDTH 383 0
DWIDTH 9 0
BBX 9 13 0 0
BITMAP
000900
007F40
01FF80
07FF40
1FFD00
3FF400
BFE000
7FF400
2FFD00
0BFF40
01FF80
007F80
001E00
ENDCHAR
STARTCHAR guilsinglright
ENCODING 8250
SWIDTH 383 0
DWIDTH 9 0
BBX 9 13 0 0
BITMAP
090000
3F4000
BFD000
7FF400
1FFD00
07FF40
01FF80
03FF80
0FFE00
2FF800
BFE000
7F8000
1E0000
ENDCHAR
STARTCHAR fraction
ENCODING 8260
SWIDTH 433 0
DWIDTH 10 0
BBX 12 20 1 -1
BITMAP
000018
00003D
0000B8
0000F4
0002E0
0003D0
000B80
001F40
002E00
007C00
00B800
01F000
02E000
07C000
0F4000
1F0000
3D0000
7C0000
F40000
600000
ENDCHAR
STARTCHAR Euro
ENCODING 8364
SWIDTH 612 0
DWIDTH 15 0
BBX 14 19 0 0
BITMAP
00015550
001FFFF0
00BFFFF0
01FFFFF0
02FFEA90
07FD0000
1BFEA900
BFFFFF80
7FFFFF80
0BF80000
6FFAAA40
BFFFFF80
7FFFFF80
07FC0000
03FE5540
02FFFFE0
00FFFFF0
002FFFF0
0006FFE0
ENDCHAR
STARTCHAR trademark
ENCODING 8482
SWIDTH 840 0
DWIDTH 20 0
BBX 20 11 0 5
BITMAP
1555010010
BFFFCF80BC
BFFFDFD1FD
6BFA5FF7FD
02F41FFFFD
02F41FFFFD
02F41FFFFD
02F41FAEBD
02F41F80BD
02F00F80BC
0040050010
ENDCHAR
STARTCHAR minus
ENCODING 8722
SWIDTH 581 0
DWIDTH 14 0
BBX 14 5 0 4
BITMAP
1AAAAA40
7FFFFFD0
7FFFFFD0
7FFFFFC0
15555540
ENDCHAR
STARTCHAR f_f
ENCODING 64256
SWIDTH 803 0
DWIDTH 19 0
BBX 19 19 0 0
BITMAP
001A800690
00BFE07FF0
02FFE0FFF4
03FFE2FFF0
07FE83FE90
07F803FD00
2BFEABFEA4
BFFFFFFFF8
BFFFFFFFFC
BFFFFFFFF8
2BFEABFEA0
07F803FD00
07F803FD00
07F803FD00
07F803FD00
07F803FD00
07F803FD00
07F803FD00
02F401F800
ENDCHAR
STARTCHAR fi
ENCODING 64257
SWIDTH 709 0
DWIDTH 17 0
BBX 16 19 0 0
BITMAP
00168069
00BFE0FF
02FFE0FF
03FFE0FF
07FE8069
07F80000
1BFE9069
7FFFF4FF
BFFFF4FF
7FFFF4FF
1BFE90FF
07F800FF
07F800FF
07F800FF
07F800FF
07F800FF
07F800FF
07F800FF
02F400BE
ENDCHAR
STARTCHAR fl
ENCODING 64258
SWIDTH 774 0
DWIDTH 19 0
BBX 19 19 0 0
BITMAP
0016806800
00BFE1FE00
02FFE1FF00
03FFE1FF00
07FE81FF00
07F801FF00
1BFE91FF00
7FFFF5FF00
BFFFF5FF00
7FFFF5FF00
1BFE91FF00
07F801FF00
07F801FF00
07F801FF00
07F801FF00
07F801FFF0
07F800FFF4
07F800BFF4
02F4002FE0
ENDCHAR
STARTCHAR f_f_i
ENCODING 64259
SWIDTH 1059 0
DWIDTH 25 0
BBX 25 19 0 0
BITMAP
001A8006901500
00BFE07FF0BF40
02FFE0FFF4BF40
03FFE2FFF0BF40
07FE83FE902A00
07F803FD000000
2BFEABFEA41900
BFFFFFFFF8BF40
BFFFFFFFFCBF40
BFFFFFFFF8BF40
2BFEABFEA0BF40
07F803FD00BF40
07F803FD00BF40
07F803FD00BF40
07F803FD00BF40
07F803FD00BF40
07F803FD00BF40
07F803FD00BF40
02F401F8007F00
ENDCHAR
STARTCHAR .notdef
ENCODING -1
SWIDTH 500 0
DWIDTH 12 0
BBX 1 1 0 0
BITMAP
00
ENDCHAR
STARTCHAR .null
ENCODING -1
SWIDTH 0 0
DWIDTH 0 0
BBX 1 1 0 0
BITMAP
00
ENDCHAR
STARTCHAR nonmarkingreturn
ENCODING -1
SWIDTH 333 0
DWIDTH 8 0
BBX 1 1 0 0
BITMAP
00
ENDCHAR
STARTCHAR f_t
ENCODING -1
SWIDTH 814 0
DWIDTH 20 0
BBX 19 19 0 0
BITMAP
001A800000
00BFE00000
02FFE1F800
03FFE2FD00
07FE82FD00
07F802FE00
2BFEABFEA4
BFFFFFFFFC
BFFFFFFFFC
BFFFFFFFFC
2BFEABFEA4
07F802FE00
07F802FE00
07F802FE00
07F802FE00
07F801FFF0
07F800FFF4
07F8007FF4
02F4001BF0
ENDCHAR
STARTCHAR t_t
ENCODING -1
SWIDTH 794 0
DWIDTH 19 0
BBX 19 17 0 0
BITMAP
02F402F400
07F803FC00
07F803FC00
07F803FC00
2BFEABFEA0
BFFFFFFFF8
BFFFFFFFF8
BFFFFFFFF8
2BFEABFEA0
07F803FC00
07F803FC00
07F803FC00
07FC03FD00
07FFD3FFE0
03FFE2FFF0
01FFE0FFF0
006FD02FE0
ENDCHAR
STARTCHAR l_l
ENCODING -1
SWIDTH 626 0
DWIDTH 15 0
BBX 14 19 1 0
BITMAP
69019000
FF07F800
FF0BF800
FF0BF800
FF0BF800
FF0BF800
FF0BF800
FF0BF800
FF0BF800
FF0BF800
FF0BF800
FF0BF800
FF0BF800
FF0BF800
FF4BF900
FFE7FFD0
BFF3FFE0
7FF1FFE0
1BD06F80
ENDCHAR
STARTCHAR j_j
ENCODING -1
SWIDTH 521 0
DWIDTH 13 0
BBX 15 25 -3 -6
BITMAP
00140150
00FF07F4
00FF0BF8
00FF0BF4
006902A0
00000000
00690190
00FF07F4
00FF0BF8
00FF0BF8
00FF0BF8
00FF0BF8
00FF0BF8
00FF0BF8
00FF0BF8
00FF0BF8
00FF0BF8
00FF0BF8
00FF0BF8
01FF0BF4
6BFE6FF4
FFFDFFF0
FFF4FFE0
FFD0FF80
65006900
ENDCHAR
ENDFONT
